<svg width="468" height="130" viewBox="0 0 468 130" fill="none" xmlns="http://www.w3.org/2000/svg">
<g clip-path="url(#clip0_2559_311)">
<rect width="468" height="130" rx="16" fill="#5F00D9"/>
<rect x="24" y="24" width="56" height="22" rx="11" fill="white"/>
<path d="M34.899 39.18C34.275 39.18 33.715 39.084 33.219 38.892C32.723 38.7 32.303 38.42 31.959 38.052C31.615 37.676 31.351 37.22 31.167 36.684C30.983 36.148 30.891 35.532 30.891 34.836C30.891 34.14 30.995 33.524 31.203 32.988C31.419 32.452 31.711 32 32.079 31.632C32.447 31.256 32.879 30.972 33.375 30.78C33.871 30.588 34.403 30.492 34.971 30.492C35.315 30.492 35.627 30.52 35.907 30.576C36.187 30.624 36.431 30.68 36.639 30.744C36.847 30.808 37.019 30.876 37.155 30.948C37.291 31.02 37.387 31.072 37.443 31.104L36.999 32.34C36.807 32.22 36.531 32.108 36.171 32.004C35.819 31.892 35.435 31.836 35.019 31.836C34.659 31.836 34.323 31.9 34.011 32.028C33.699 32.148 33.427 32.332 33.195 32.58C32.971 32.828 32.795 33.14 32.667 33.516C32.539 33.892 32.475 34.328 32.475 34.824C32.475 35.264 32.523 35.668 32.619 36.036C32.723 36.404 32.879 36.724 33.087 36.996C33.295 37.26 33.559 37.468 33.879 37.62C34.199 37.764 34.583 37.836 35.031 37.836C35.567 37.836 36.003 37.784 36.339 37.68C36.675 37.568 36.935 37.464 37.119 37.368L37.527 38.604C37.431 38.668 37.299 38.732 37.131 38.796C36.971 38.86 36.779 38.924 36.555 38.988C36.331 39.044 36.079 39.088 35.799 39.12C35.519 39.16 35.219 39.18 34.899 39.18ZM44.307 35.856C44.307 36.352 44.235 36.804 44.091 37.212C43.947 37.62 43.743 37.968 43.479 38.256C43.215 38.544 42.895 38.768 42.519 38.928C42.151 39.088 41.743 39.168 41.295 39.168C40.847 39.168 40.439 39.088 40.071 38.928C39.703 38.768 39.387 38.544 39.123 38.256C38.859 37.968 38.651 37.62 38.499 37.212C38.355 36.804 38.283 36.352 38.283 35.856C38.283 35.36 38.355 34.912 38.499 34.512C38.651 34.104 38.859 33.756 39.123 33.468C39.395 33.18 39.715 32.96 40.083 32.808C40.451 32.648 40.855 32.568 41.295 32.568C41.735 32.568 42.139 32.648 42.507 32.808C42.883 32.96 43.203 33.18 43.467 33.468C43.731 33.756 43.935 34.104 44.079 34.512C44.231 34.912 44.307 35.36 44.307 35.856ZM42.819 35.856C42.819 35.232 42.683 34.74 42.411 34.38C42.147 34.012 41.775 33.828 41.295 33.828C40.815 33.828 40.439 34.012 40.167 34.38C39.903 34.74 39.771 35.232 39.771 35.856C39.771 36.488 39.903 36.988 40.167 37.356C40.439 37.724 40.815 37.908 41.295 37.908C41.775 37.908 42.147 37.724 42.411 37.356C42.683 36.988 42.819 36.488 42.819 35.856ZM45.8029 32.928C46.0829 32.848 46.4469 32.772 46.8949 32.7C47.3429 32.628 47.8389 32.592 48.3829 32.592C48.8949 32.592 49.3229 32.664 49.6669 32.808C50.0109 32.944 50.2829 33.14 50.4829 33.396C50.6909 33.644 50.8349 33.948 50.9149 34.308C51.0029 34.66 51.0469 35.048 51.0469 35.472V39H49.5949V35.7C49.5949 35.364 49.5709 35.08 49.5229 34.848C49.4829 34.608 49.4109 34.416 49.3069 34.272C49.2109 34.12 49.0749 34.012 48.8989 33.948C48.7309 33.876 48.5229 33.84 48.2749 33.84C48.0909 33.84 47.8989 33.852 47.6989 33.876C47.4989 33.9 47.3509 33.92 47.2549 33.936V39H45.8029V32.928ZM52.7504 31.068L54.2024 30.828V32.724H56.4344V33.936H54.2024V36.492C54.2024 36.996 54.2824 37.356 54.4424 37.572C54.6024 37.788 54.8744 37.896 55.2584 37.896C55.5224 37.896 55.7544 37.868 55.9544 37.812C56.1624 37.756 56.3264 37.704 56.4464 37.656L56.6864 38.808C56.5184 38.88 56.2984 38.952 56.0264 39.024C55.7544 39.104 55.4344 39.144 55.0664 39.144C54.6184 39.144 54.2424 39.084 53.9384 38.964C53.6424 38.844 53.4064 38.672 53.2304 38.448C53.0544 38.216 52.9304 37.94 52.8584 37.62C52.7864 37.292 52.7504 36.92 52.7504 36.504V31.068ZM60.0461 37.98C60.4941 37.98 60.8341 37.956 61.0661 37.908V36.3C60.9861 36.276 60.8701 36.252 60.7181 36.228C60.5661 36.204 60.3981 36.192 60.2141 36.192C60.0541 36.192 59.8901 36.204 59.7221 36.228C59.5621 36.252 59.4141 36.296 59.2781 36.36C59.1501 36.424 59.0461 36.516 58.9661 36.636C58.8861 36.748 58.8461 36.892 58.8461 37.068C58.8461 37.412 58.9541 37.652 59.1701 37.788C59.3861 37.916 59.6781 37.98 60.0461 37.98ZM59.9261 32.568C60.4061 32.568 60.8101 32.628 61.1381 32.748C61.4661 32.868 61.7261 33.036 61.9181 33.252C62.1181 33.468 62.2581 33.732 62.3381 34.044C62.4261 34.348 62.4701 34.684 62.4701 35.052V38.856C62.2461 38.904 61.9061 38.96 61.4501 39.024C61.0021 39.096 60.4941 39.132 59.9261 39.132C59.5501 39.132 59.2061 39.096 58.8941 39.024C58.5821 38.952 58.3141 38.836 58.0901 38.676C57.8741 38.516 57.7021 38.308 57.5741 38.052C57.4541 37.796 57.3941 37.48 57.3941 37.104C57.3941 36.744 57.4621 36.44 57.5981 36.192C57.7421 35.944 57.9341 35.744 58.1741 35.592C58.4141 35.432 58.6901 35.32 59.0021 35.256C59.3221 35.184 59.6541 35.148 59.9981 35.148C60.1581 35.148 60.3261 35.16 60.5021 35.184C60.6781 35.2 60.8661 35.232 61.0661 35.28V35.04C61.0661 34.872 61.0461 34.712 61.0061 34.56C60.9661 34.408 60.8941 34.276 60.7901 34.164C60.6941 34.044 60.5621 33.952 60.3941 33.888C60.2341 33.824 60.0301 33.792 59.7821 33.792C59.4461 33.792 59.1381 33.816 58.8581 33.864C58.5781 33.912 58.3501 33.968 58.1741 34.032L57.9941 32.856C58.1781 32.792 58.4461 32.728 58.7981 32.664C59.1501 32.6 59.5261 32.568 59.9261 32.568ZM63.9002 35.868C63.9002 35.404 63.9722 34.972 64.1162 34.572C64.2602 34.164 64.4642 33.812 64.7282 33.516C65.0002 33.22 65.3282 32.988 65.7122 32.82C66.0962 32.652 66.5282 32.568 67.0082 32.568C67.6002 32.568 68.1602 32.676 68.6882 32.892L68.3762 34.08C68.2082 34.008 68.0162 33.948 67.8002 33.9C67.5922 33.852 67.3682 33.828 67.1282 33.828C66.5602 33.828 66.1282 34.008 65.8322 34.368C65.5362 34.72 65.3882 35.22 65.3882 35.868C65.3882 36.492 65.5282 36.988 65.8082 37.356C66.0882 37.716 66.5602 37.896 67.2242 37.896C67.4722 37.896 67.7162 37.872 67.9562 37.824C68.1962 37.776 68.4042 37.716 68.5802 37.644L68.7842 38.844C68.6242 38.924 68.3802 38.996 68.0522 39.06C67.7322 39.124 67.4002 39.156 67.0562 39.156C66.5202 39.156 66.0522 39.076 65.6522 38.916C65.2602 38.748 64.9322 38.52 64.6682 38.232C64.4122 37.936 64.2202 37.588 64.0922 37.188C63.9642 36.78 63.9002 36.34 63.9002 35.868ZM69.8364 31.068L71.2884 30.828V32.724H73.5204V33.936H71.2884V36.492C71.2884 36.996 71.3684 37.356 71.5284 37.572C71.6884 37.788 71.9604 37.896 72.3444 37.896C72.6084 37.896 72.8404 37.868 73.0404 37.812C73.2484 37.756 73.4124 37.704 73.5324 37.656L73.7724 38.808C73.6044 38.88 73.3844 38.952 73.1124 39.024C72.8404 39.104 72.5204 39.144 72.1524 39.144C71.7044 39.144 71.3284 39.084 71.0244 38.964C70.7284 38.844 70.4924 38.672 70.3164 38.448C70.1404 38.216 70.0164 37.94 69.9444 37.62C69.8724 37.292 69.8364 36.92 69.8364 36.504V31.068Z" fill="#5F00D9"/>
<path d="M33.378 77.038V79H25.494V66.526H27.762V77.038H33.378ZM34.3035 74.338C34.3035 73.51 34.4235 72.784 34.6635 72.16C34.9155 71.536 35.2455 71.02 35.6535 70.612C36.0615 70.192 36.5295 69.88 37.0575 69.676C37.5855 69.46 38.1255 69.352 38.6775 69.352C39.9735 69.352 40.9815 69.754 41.7015 70.558C42.4335 71.362 42.7995 72.562 42.7995 74.158C42.7995 74.278 42.7935 74.416 42.7815 74.572C42.7815 74.716 42.7755 74.848 42.7635 74.968H36.5535C36.6135 75.724 36.8775 76.312 37.3455 76.732C37.8255 77.14 38.5155 77.344 39.4155 77.344C39.9435 77.344 40.4235 77.296 40.8555 77.2C41.2995 77.104 41.6475 77.002 41.8995 76.894L42.1875 78.676C42.0675 78.736 41.8995 78.802 41.6835 78.874C41.4795 78.934 41.2395 78.988 40.9635 79.036C40.6995 79.096 40.4115 79.144 40.0995 79.18C39.7875 79.216 39.4695 79.234 39.1455 79.234C38.3175 79.234 37.5975 79.114 36.9855 78.874C36.3735 78.622 35.8695 78.28 35.4735 77.848C35.0775 77.404 34.7835 76.888 34.5915 76.3C34.3995 75.7 34.3035 75.046 34.3035 74.338ZM40.6215 73.366C40.6215 73.066 40.5795 72.784 40.4955 72.52C40.4115 72.244 40.2855 72.01 40.1175 71.818C39.9615 71.614 39.7635 71.458 39.5235 71.35C39.2955 71.23 39.0195 71.17 38.6955 71.17C38.3595 71.17 38.0655 71.236 37.8135 71.368C37.5615 71.488 37.3455 71.65 37.1655 71.854C36.9975 72.058 36.8655 72.292 36.7695 72.556C36.6735 72.82 36.6075 73.09 36.5715 73.366H40.6215ZM48.4207 77.47C49.0927 77.47 49.6027 77.434 49.9507 77.362V74.95C49.8307 74.914 49.6567 74.878 49.4287 74.842C49.2007 74.806 48.9487 74.788 48.6727 74.788C48.4327 74.788 48.1867 74.806 47.9347 74.842C47.6947 74.878 47.4727 74.944 47.2687 75.04C47.0767 75.136 46.9207 75.274 46.8007 75.454C46.6807 75.622 46.6207 75.838 46.6207 76.102C46.6207 76.618 46.7827 76.978 47.1067 77.182C47.4307 77.374 47.8687 77.47 48.4207 77.47ZM48.2407 69.352C48.9607 69.352 49.5667 69.442 50.0587 69.622C50.5507 69.802 50.9407 70.054 51.2287 70.378C51.5287 70.702 51.7387 71.098 51.8587 71.566C51.9907 72.022 52.0567 72.526 52.0567 73.078V78.784C51.7207 78.856 51.2107 78.94 50.5267 79.036C49.8547 79.144 49.0927 79.198 48.2407 79.198C47.6767 79.198 47.1607 79.144 46.6927 79.036C46.2247 78.928 45.8227 78.754 45.4867 78.514C45.1627 78.274 44.9047 77.962 44.7127 77.578C44.5327 77.194 44.4427 76.72 44.4427 76.156C44.4427 75.616 44.5447 75.16 44.7487 74.788C44.9647 74.416 45.2527 74.116 45.6127 73.888C45.9727 73.648 46.3867 73.48 46.8547 73.384C47.3347 73.276 47.8327 73.222 48.3487 73.222C48.5887 73.222 48.8407 73.24 49.1047 73.276C49.3687 73.3 49.6507 73.348 49.9507 73.42V73.06C49.9507 72.808 49.9207 72.568 49.8607 72.34C49.8007 72.112 49.6927 71.914 49.5367 71.746C49.3927 71.566 49.1947 71.428 48.9427 71.332C48.7027 71.236 48.3967 71.188 48.0247 71.188C47.5207 71.188 47.0587 71.224 46.6387 71.296C46.2187 71.368 45.8767 71.452 45.6127 71.548L45.3427 69.784C45.6187 69.688 46.0207 69.592 46.5487 69.496C47.0767 69.4 47.6407 69.352 48.2407 69.352ZM60.0879 71.548C59.9079 71.488 59.6559 71.428 59.3319 71.368C59.0199 71.296 58.6539 71.26 58.2339 71.26C57.9939 71.26 57.7359 71.284 57.4599 71.332C57.1959 71.38 57.0099 71.422 56.9019 71.458V79H54.7239V70.036C55.1439 69.88 55.6659 69.736 56.2899 69.604C56.9259 69.46 57.6279 69.388 58.3959 69.388C58.5399 69.388 58.7079 69.4 58.8999 69.424C59.0919 69.436 59.2839 69.46 59.4759 69.496C59.6679 69.52 59.8539 69.556 60.0339 69.604C60.2139 69.64 60.3579 69.676 60.4659 69.712L60.0879 71.548ZM61.9837 69.892C62.4037 69.772 62.9497 69.658 63.6217 69.55C64.2937 69.442 65.0377 69.388 65.8537 69.388C66.6217 69.388 67.2637 69.496 67.7797 69.712C68.2957 69.916 68.7037 70.21 69.0037 70.594C69.3157 70.966 69.5317 71.422 69.6517 71.962C69.7837 72.49 69.8497 73.072 69.8497 73.708V79H67.6717V74.05C67.6717 73.546 67.6357 73.12 67.5637 72.772C67.5037 72.412 67.3957 72.124 67.2397 71.908C67.0957 71.68 66.8917 71.518 66.6277 71.422C66.3757 71.314 66.0637 71.26 65.6917 71.26C65.4157 71.26 65.1277 71.278 64.8277 71.314C64.5277 71.35 64.3057 71.38 64.1617 71.404V79H61.9837V69.892ZM82.0781 74.05C82.0781 73.066 81.9521 72.358 81.7001 71.926C81.4601 71.482 81.0041 71.26 80.3321 71.26C80.0921 71.26 79.8281 71.278 79.5401 71.314C79.2521 71.35 79.0361 71.38 78.8921 71.404V79H76.7141V69.892C77.1341 69.772 77.6801 69.658 78.3521 69.55C79.0361 69.442 79.7561 69.388 80.5121 69.388C81.1601 69.388 81.6881 69.472 82.0961 69.64C82.5161 69.808 82.8641 70.03 83.1401 70.306C83.2721 70.21 83.4401 70.108 83.6441 70C83.8481 69.892 84.0761 69.796 84.3281 69.712C84.5801 69.616 84.8441 69.538 85.1201 69.478C85.4081 69.418 85.6961 69.388 85.9841 69.388C86.7161 69.388 87.3161 69.496 87.7841 69.712C88.2641 69.916 88.6361 70.21 88.9001 70.594C89.1761 70.966 89.3621 71.422 89.4581 71.962C89.5661 72.49 89.6201 73.072 89.6201 73.708V79H87.4421V74.05C87.4421 73.066 87.3221 72.358 87.0821 71.926C86.8421 71.482 86.3801 71.26 85.6961 71.26C85.3481 71.26 85.0181 71.32 84.7061 71.44C84.3941 71.548 84.1601 71.656 84.0041 71.764C84.1001 72.064 84.1661 72.382 84.2021 72.718C84.2381 73.054 84.2561 73.414 84.2561 73.798V79H82.0781V74.05ZM100.802 74.284C100.802 75.028 100.694 75.706 100.478 76.318C100.262 76.93 99.9563 77.452 99.5603 77.884C99.1643 78.316 98.6843 78.652 98.1203 78.892C97.5683 79.132 96.9563 79.252 96.2843 79.252C95.6123 79.252 95.0003 79.132 94.4483 78.892C93.8963 78.652 93.4223 78.316 93.0263 77.884C92.6303 77.452 92.3183 76.93 92.0903 76.318C91.8743 75.706 91.7663 75.028 91.7663 74.284C91.7663 73.54 91.8743 72.868 92.0903 72.268C92.3183 71.656 92.6303 71.134 93.0263 70.702C93.4343 70.27 93.9143 69.94 94.4663 69.712C95.0183 69.472 95.6243 69.352 96.2843 69.352C96.9443 69.352 97.5503 69.472 98.1023 69.712C98.6663 69.94 99.1463 70.27 99.5423 70.702C99.9383 71.134 100.244 71.656 100.46 72.268C100.688 72.868 100.802 73.54 100.802 74.284ZM98.5703 74.284C98.5703 73.348 98.3663 72.61 97.9583 72.07C97.5623 71.518 97.0043 71.242 96.2843 71.242C95.5643 71.242 95.0003 71.518 94.5923 72.07C94.1963 72.61 93.9983 73.348 93.9983 74.284C93.9983 75.232 94.1963 75.982 94.5923 76.534C95.0003 77.086 95.5643 77.362 96.2843 77.362C97.0043 77.362 97.5623 77.086 97.9583 76.534C98.3663 75.982 98.5703 75.232 98.5703 74.284ZM108.41 71.548C108.23 71.488 107.978 71.428 107.654 71.368C107.342 71.296 106.976 71.26 106.556 71.26C106.316 71.26 106.058 71.284 105.782 71.332C105.518 71.38 105.332 71.422 105.224 71.458V79H103.046V70.036C103.466 69.88 103.988 69.736 104.612 69.604C105.248 69.46 105.95 69.388 106.718 69.388C106.862 69.388 107.03 69.4 107.222 69.424C107.414 69.436 107.606 69.46 107.798 69.496C107.99 69.52 108.176 69.556 108.356 69.604C108.536 69.64 108.68 69.676 108.788 69.712L108.41 71.548ZM109.784 74.338C109.784 73.51 109.904 72.784 110.144 72.16C110.396 71.536 110.726 71.02 111.134 70.612C111.542 70.192 112.01 69.88 112.538 69.676C113.066 69.46 113.606 69.352 114.158 69.352C115.454 69.352 116.462 69.754 117.182 70.558C117.914 71.362 118.28 72.562 118.28 74.158C118.28 74.278 118.274 74.416 118.262 74.572C118.262 74.716 118.256 74.848 118.244 74.968H112.034C112.094 75.724 112.358 76.312 112.826 76.732C113.306 77.14 113.996 77.344 114.896 77.344C115.424 77.344 115.904 77.296 116.336 77.2C116.78 77.104 117.128 77.002 117.38 76.894L117.668 78.676C117.548 78.736 117.38 78.802 117.164 78.874C116.96 78.934 116.72 78.988 116.444 79.036C116.18 79.096 115.892 79.144 115.58 79.18C115.268 79.216 114.95 79.234 114.626 79.234C113.798 79.234 113.078 79.114 112.466 78.874C111.854 78.622 111.35 78.28 110.954 77.848C110.558 77.404 110.264 76.888 110.072 76.3C109.88 75.7 109.784 75.046 109.784 74.338ZM116.102 73.366C116.102 73.066 116.06 72.784 115.976 72.52C115.892 72.244 115.766 72.01 115.598 71.818C115.442 71.614 115.244 71.458 115.004 71.35C114.776 71.23 114.5 71.17 114.176 71.17C113.84 71.17 113.546 71.236 113.294 71.368C113.042 71.488 112.826 71.65 112.646 71.854C112.478 72.058 112.346 72.292 112.25 72.556C112.154 72.82 112.088 73.09 112.052 73.366H116.102ZM128.102 77.47C128.774 77.47 129.284 77.434 129.632 77.362V74.95C129.512 74.914 129.338 74.878 129.11 74.842C128.882 74.806 128.63 74.788 128.354 74.788C128.114 74.788 127.868 74.806 127.616 74.842C127.376 74.878 127.154 74.944 126.95 75.04C126.758 75.136 126.602 75.274 126.482 75.454C126.362 75.622 126.302 75.838 126.302 76.102C126.302 76.618 126.464 76.978 126.788 77.182C127.112 77.374 127.55 77.47 128.102 77.47ZM127.922 69.352C128.642 69.352 129.248 69.442 129.74 69.622C130.232 69.802 130.622 70.054 130.91 70.378C131.21 70.702 131.42 71.098 131.54 71.566C131.672 72.022 131.738 72.526 131.738 73.078V78.784C131.402 78.856 130.892 78.94 130.208 79.036C129.536 79.144 128.774 79.198 127.922 79.198C127.358 79.198 126.842 79.144 126.374 79.036C125.906 78.928 125.504 78.754 125.168 78.514C124.844 78.274 124.586 77.962 124.394 77.578C124.214 77.194 124.124 76.72 124.124 76.156C124.124 75.616 124.226 75.16 124.43 74.788C124.646 74.416 124.934 74.116 125.294 73.888C125.654 73.648 126.068 73.48 126.536 73.384C127.016 73.276 127.514 73.222 128.03 73.222C128.27 73.222 128.522 73.24 128.786 73.276C129.05 73.3 129.332 73.348 129.632 73.42V73.06C129.632 72.808 129.602 72.568 129.542 72.34C129.482 72.112 129.374 71.914 129.218 71.746C129.074 71.566 128.876 71.428 128.624 71.332C128.384 71.236 128.078 71.188 127.706 71.188C127.202 71.188 126.74 71.224 126.32 71.296C125.9 71.368 125.558 71.452 125.294 71.548L125.024 69.784C125.3 69.688 125.702 69.592 126.23 69.496C126.758 69.4 127.322 69.352 127.922 69.352ZM140.652 74.266C140.652 73.342 140.466 72.61 140.094 72.07C139.734 71.53 139.158 71.26 138.366 71.26C138.006 71.26 137.664 71.314 137.34 71.422C137.028 71.53 136.776 71.65 136.584 71.782V77.2C136.74 77.236 136.938 77.272 137.178 77.308C137.43 77.332 137.73 77.344 138.078 77.344C138.882 77.344 139.512 77.074 139.968 76.534C140.424 75.982 140.652 75.226 140.652 74.266ZM142.884 74.302C142.884 75.058 142.77 75.742 142.542 76.354C142.326 76.954 142.008 77.47 141.588 77.902C141.18 78.334 140.682 78.664 140.094 78.892C139.506 79.12 138.84 79.234 138.096 79.234C137.376 79.234 136.686 79.18 136.026 79.072C135.378 78.964 134.838 78.844 134.406 78.712V65.392L136.584 65.032V69.91C136.836 69.778 137.142 69.658 137.502 69.55C137.874 69.442 138.282 69.388 138.726 69.388C139.386 69.388 139.974 69.508 140.49 69.748C141.018 69.976 141.456 70.306 141.804 70.738C142.152 71.17 142.416 71.692 142.596 72.304C142.788 72.904 142.884 73.57 142.884 74.302ZM153.642 74.284C153.642 75.028 153.534 75.706 153.318 76.318C153.102 76.93 152.796 77.452 152.4 77.884C152.004 78.316 151.524 78.652 150.96 78.892C150.408 79.132 149.796 79.252 149.124 79.252C148.452 79.252 147.84 79.132 147.288 78.892C146.736 78.652 146.262 78.316 145.866 77.884C145.47 77.452 145.158 76.93 144.93 76.318C144.714 75.706 144.606 75.028 144.606 74.284C144.606 73.54 144.714 72.868 144.93 72.268C145.158 71.656 145.47 71.134 145.866 70.702C146.274 70.27 146.754 69.94 147.306 69.712C147.858 69.472 148.464 69.352 149.124 69.352C149.784 69.352 150.39 69.472 150.942 69.712C151.506 69.94 151.986 70.27 152.382 70.702C152.778 71.134 153.084 71.656 153.3 72.268C153.528 72.868 153.642 73.54 153.642 74.284ZM151.41 74.284C151.41 73.348 151.206 72.61 150.798 72.07C150.402 71.518 149.844 71.242 149.124 71.242C148.404 71.242 147.84 71.518 147.432 72.07C147.036 72.61 146.838 73.348 146.838 74.284C146.838 75.232 147.036 75.982 147.432 76.534C147.84 77.086 148.404 77.362 149.124 77.362C149.844 77.362 150.402 77.086 150.798 76.534C151.206 75.982 151.41 75.232 151.41 74.284ZM163.608 78.712C163.188 78.82 162.642 78.928 161.97 79.036C161.298 79.156 160.56 79.216 159.756 79.216C159 79.216 158.364 79.108 157.848 78.892C157.344 78.676 156.936 78.376 156.624 77.992C156.324 77.608 156.108 77.152 155.976 76.624C155.844 76.084 155.778 75.496 155.778 74.86V69.586H157.956V74.518C157.956 75.526 158.1 76.246 158.388 76.678C158.688 77.11 159.204 77.326 159.936 77.326C160.2 77.326 160.476 77.314 160.764 77.29C161.064 77.266 161.286 77.236 161.43 77.2V69.586H163.608V78.712ZM166.272 67.102L168.45 66.742V69.586H171.798V71.404H168.45V75.238C168.45 75.994 168.57 76.534 168.81 76.858C169.05 77.182 169.458 77.344 170.034 77.344C170.43 77.344 170.778 77.302 171.078 77.218C171.39 77.134 171.636 77.056 171.816 76.984L172.176 78.712C171.924 78.82 171.594 78.928 171.186 79.036C170.778 79.156 170.298 79.216 169.746 79.216C169.074 79.216 168.51 79.126 168.054 78.946C167.61 78.766 167.256 78.508 166.992 78.172C166.728 77.824 166.542 77.41 166.434 76.93C166.326 76.438 166.272 75.88 166.272 75.256V67.102ZM186.619 74.284C186.619 75.028 186.511 75.706 186.295 76.318C186.079 76.93 185.773 77.452 185.377 77.884C184.981 78.316 184.501 78.652 183.937 78.892C183.385 79.132 182.773 79.252 182.101 79.252C181.429 79.252 180.817 79.132 180.265 78.892C179.713 78.652 179.239 78.316 178.843 77.884C178.447 77.452 178.135 76.93 177.907 76.318C177.691 75.706 177.583 75.028 177.583 74.284C177.583 73.54 177.691 72.868 177.907 72.268C178.135 71.656 178.447 71.134 178.843 70.702C179.251 70.27 179.731 69.94 180.283 69.712C180.835 69.472 181.441 69.352 182.101 69.352C182.761 69.352 183.367 69.472 183.919 69.712C184.483 69.94 184.963 70.27 185.359 70.702C185.755 71.134 186.061 71.656 186.277 72.268C186.505 72.868 186.619 73.54 186.619 74.284ZM184.387 74.284C184.387 73.348 184.183 72.61 183.775 72.07C183.379 71.518 182.821 71.242 182.101 71.242C181.381 71.242 180.817 71.518 180.409 72.07C180.013 72.61 179.815 73.348 179.815 74.284C179.815 75.232 180.013 75.982 180.409 76.534C180.817 77.086 181.381 77.362 182.101 77.362C182.821 77.362 183.379 77.086 183.775 76.534C184.183 75.982 184.387 75.232 184.387 74.284ZM196.585 78.712C196.165 78.82 195.619 78.928 194.947 79.036C194.275 79.156 193.537 79.216 192.733 79.216C191.977 79.216 191.341 79.108 190.825 78.892C190.321 78.676 189.913 78.376 189.601 77.992C189.301 77.608 189.085 77.152 188.953 76.624C188.821 76.084 188.755 75.496 188.755 74.86V69.586H190.933V74.518C190.933 75.526 191.077 76.246 191.365 76.678C191.665 77.11 192.181 77.326 192.913 77.326C193.177 77.326 193.453 77.314 193.741 77.29C194.041 77.266 194.263 77.236 194.407 77.2V69.586H196.585V78.712ZM204.721 71.548C204.541 71.488 204.289 71.428 203.965 71.368C203.653 71.296 203.287 71.26 202.867 71.26C202.627 71.26 202.369 71.284 202.093 71.332C201.829 71.38 201.643 71.422 201.535 71.458V79H199.357V70.036C199.777 69.88 200.299 69.736 200.923 69.604C201.559 69.46 202.261 69.388 203.029 69.388C203.173 69.388 203.341 69.4 203.533 69.424C203.725 69.436 203.917 69.46 204.109 69.496C204.301 69.52 204.487 69.556 204.667 69.604C204.847 69.64 204.991 69.676 205.099 69.712L204.721 71.548ZM216.182 71.548C216.002 71.488 215.75 71.428 215.426 71.368C215.114 71.296 214.748 71.26 214.328 71.26C214.088 71.26 213.83 71.284 213.554 71.332C213.29 71.38 213.104 71.422 212.996 71.458V79H210.818V70.036C211.238 69.88 211.76 69.736 212.384 69.604C213.02 69.46 213.722 69.388 214.49 69.388C214.634 69.388 214.802 69.4 214.994 69.424C215.186 69.436 215.378 69.46 215.57 69.496C215.762 69.52 215.948 69.556 216.128 69.604C216.308 69.64 216.452 69.676 216.56 69.712L216.182 71.548ZM217.555 74.338C217.555 73.51 217.675 72.784 217.915 72.16C218.167 71.536 218.497 71.02 218.905 70.612C219.313 70.192 219.781 69.88 220.309 69.676C220.837 69.46 221.377 69.352 221.929 69.352C223.225 69.352 224.233 69.754 224.953 70.558C225.685 71.362 226.051 72.562 226.051 74.158C226.051 74.278 226.045 74.416 226.033 74.572C226.033 74.716 226.027 74.848 226.015 74.968H219.805C219.865 75.724 220.129 76.312 220.597 76.732C221.077 77.14 221.767 77.344 222.667 77.344C223.195 77.344 223.675 77.296 224.107 77.2C224.551 77.104 224.899 77.002 225.151 76.894L225.439 78.676C225.319 78.736 225.151 78.802 224.935 78.874C224.731 78.934 224.491 78.988 224.215 79.036C223.951 79.096 223.663 79.144 223.351 79.18C223.039 79.216 222.721 79.234 222.397 79.234C221.569 79.234 220.849 79.114 220.237 78.874C219.625 78.622 219.121 78.28 218.725 77.848C218.329 77.404 218.035 76.888 217.843 76.3C217.651 75.7 217.555 75.046 217.555 74.338ZM223.873 73.366C223.873 73.066 223.831 72.784 223.747 72.52C223.663 72.244 223.537 72.01 223.369 71.818C223.213 71.614 223.015 71.458 222.775 71.35C222.547 71.23 222.271 71.17 221.947 71.17C221.611 71.17 221.317 71.236 221.065 71.368C220.813 71.488 220.597 71.65 220.417 71.854C220.249 72.058 220.117 72.292 220.021 72.556C219.925 72.82 219.859 73.09 219.823 73.366H223.873ZM231.673 77.47C232.345 77.47 232.855 77.434 233.203 77.362V74.95C233.083 74.914 232.909 74.878 232.681 74.842C232.453 74.806 232.201 74.788 231.925 74.788C231.685 74.788 231.439 74.806 231.187 74.842C230.947 74.878 230.725 74.944 230.521 75.04C230.329 75.136 230.173 75.274 230.053 75.454C229.933 75.622 229.873 75.838 229.873 76.102C229.873 76.618 230.035 76.978 230.359 77.182C230.683 77.374 231.121 77.47 231.673 77.47ZM231.493 69.352C232.213 69.352 232.819 69.442 233.311 69.622C233.803 69.802 234.193 70.054 234.481 70.378C234.781 70.702 234.991 71.098 235.111 71.566C235.243 72.022 235.309 72.526 235.309 73.078V78.784C234.973 78.856 234.463 78.94 233.779 79.036C233.107 79.144 232.345 79.198 231.493 79.198C230.929 79.198 230.413 79.144 229.945 79.036C229.477 78.928 229.075 78.754 228.739 78.514C228.415 78.274 228.157 77.962 227.965 77.578C227.785 77.194 227.695 76.72 227.695 76.156C227.695 75.616 227.797 75.16 228.001 74.788C228.217 74.416 228.505 74.116 228.865 73.888C229.225 73.648 229.639 73.48 230.107 73.384C230.587 73.276 231.085 73.222 231.601 73.222C231.841 73.222 232.093 73.24 232.357 73.276C232.621 73.3 232.903 73.348 233.203 73.42V73.06C233.203 72.808 233.173 72.568 233.113 72.34C233.053 72.112 232.945 71.914 232.789 71.746C232.645 71.566 232.447 71.428 232.195 71.332C231.955 71.236 231.649 71.188 231.277 71.188C230.773 71.188 230.311 71.224 229.891 71.296C229.471 71.368 229.129 71.452 228.865 71.548L228.595 69.784C228.871 69.688 229.273 69.592 229.801 69.496C230.329 69.4 230.893 69.352 231.493 69.352ZM241.252 79.18C240.604 79.168 240.064 79.096 239.632 78.964C239.212 78.832 238.876 78.646 238.624 78.406C238.372 78.154 238.192 77.848 238.084 77.488C237.988 77.116 237.94 76.696 237.94 76.228V65.392L240.118 65.032V75.814C240.118 76.078 240.136 76.3 240.172 76.48C240.22 76.66 240.298 76.816 240.406 76.948C240.514 77.068 240.658 77.164 240.838 77.236C241.03 77.296 241.27 77.344 241.558 77.38L241.252 79.18ZM246.999 74.338C246.999 73.51 247.119 72.784 247.359 72.16C247.611 71.536 247.941 71.02 248.349 70.612C248.757 70.192 249.225 69.88 249.753 69.676C250.281 69.46 250.821 69.352 251.373 69.352C252.669 69.352 253.677 69.754 254.397 70.558C255.129 71.362 255.495 72.562 255.495 74.158C255.495 74.278 255.489 74.416 255.477 74.572C255.477 74.716 255.471 74.848 255.459 74.968H249.249C249.309 75.724 249.573 76.312 250.041 76.732C250.521 77.14 251.211 77.344 252.111 77.344C252.639 77.344 253.119 77.296 253.551 77.2C253.995 77.104 254.343 77.002 254.595 76.894L254.883 78.676C254.763 78.736 254.595 78.802 254.379 78.874C254.175 78.934 253.935 78.988 253.659 79.036C253.395 79.096 253.107 79.144 252.795 79.18C252.483 79.216 252.165 79.234 251.841 79.234C251.013 79.234 250.293 79.114 249.681 78.874C249.069 78.622 248.565 78.28 248.169 77.848C247.773 77.404 247.479 76.888 247.287 76.3C247.095 75.7 246.999 75.046 246.999 74.338ZM253.317 73.366C253.317 73.066 253.275 72.784 253.191 72.52C253.107 72.244 252.981 72.01 252.813 71.818C252.657 71.614 252.459 71.458 252.219 71.35C251.991 71.23 251.715 71.17 251.391 71.17C251.055 71.17 250.761 71.236 250.509 71.368C250.257 71.488 250.041 71.65 249.861 71.854C249.693 72.058 249.561 72.292 249.465 72.556C249.369 72.82 249.303 73.09 249.267 73.366H253.317ZM260.162 77.434C260.738 77.434 261.158 77.368 261.422 77.236C261.686 77.092 261.818 76.852 261.818 76.516C261.818 76.204 261.674 75.946 261.386 75.742C261.11 75.538 260.648 75.316 260 75.076C259.604 74.932 259.238 74.782 258.902 74.626C258.578 74.458 258.296 74.266 258.056 74.05C257.816 73.834 257.624 73.576 257.48 73.276C257.348 72.964 257.282 72.586 257.282 72.142C257.282 71.278 257.6 70.6 258.236 70.108C258.872 69.604 259.736 69.352 260.828 69.352C261.38 69.352 261.908 69.406 262.412 69.514C262.916 69.61 263.294 69.706 263.546 69.802L263.15 71.566C262.91 71.458 262.604 71.362 262.232 71.278C261.86 71.182 261.428 71.134 260.936 71.134C260.492 71.134 260.132 71.212 259.856 71.368C259.58 71.512 259.442 71.74 259.442 72.052C259.442 72.208 259.466 72.346 259.514 72.466C259.574 72.586 259.67 72.7 259.802 72.808C259.934 72.904 260.108 73.006 260.324 73.114C260.54 73.21 260.804 73.312 261.116 73.42C261.632 73.612 262.07 73.804 262.43 73.996C262.79 74.176 263.084 74.386 263.312 74.626C263.552 74.854 263.726 75.118 263.834 75.418C263.942 75.718 263.996 76.078 263.996 76.498C263.996 77.398 263.66 78.082 262.988 78.55C262.328 79.006 261.38 79.234 260.144 79.234C259.316 79.234 258.65 79.162 258.146 79.018C257.642 78.886 257.288 78.778 257.084 78.694L257.462 76.876C257.786 77.008 258.17 77.134 258.614 77.254C259.07 77.374 259.586 77.434 260.162 77.434ZM265.923 67.102L268.101 66.742V69.586H271.449V71.404H268.101V75.238C268.101 75.994 268.221 76.534 268.461 76.858C268.701 77.182 269.109 77.344 269.685 77.344C270.081 77.344 270.429 77.302 270.729 77.218C271.041 77.134 271.287 77.056 271.467 76.984L271.827 78.712C271.575 78.82 271.245 78.928 270.837 79.036C270.429 79.156 269.949 79.216 269.397 79.216C268.725 79.216 268.161 79.126 267.705 78.946C267.261 78.766 266.907 78.508 266.643 78.172C266.379 77.824 266.193 77.41 266.085 76.93C265.977 76.438 265.923 75.88 265.923 75.256V67.102ZM276.866 77.47C277.538 77.47 278.048 77.434 278.396 77.362V74.95C278.276 74.914 278.102 74.878 277.874 74.842C277.646 74.806 277.394 74.788 277.118 74.788C276.878 74.788 276.632 74.806 276.38 74.842C276.14 74.878 275.918 74.944 275.714 75.04C275.522 75.136 275.366 75.274 275.246 75.454C275.126 75.622 275.066 75.838 275.066 76.102C275.066 76.618 275.228 76.978 275.552 77.182C275.876 77.374 276.314 77.47 276.866 77.47ZM276.686 69.352C277.406 69.352 278.012 69.442 278.504 69.622C278.996 69.802 279.386 70.054 279.674 70.378C279.974 70.702 280.184 71.098 280.304 71.566C280.436 72.022 280.502 72.526 280.502 73.078V78.784C280.166 78.856 279.656 78.94 278.972 79.036C278.3 79.144 277.538 79.198 276.686 79.198C276.122 79.198 275.606 79.144 275.138 79.036C274.67 78.928 274.268 78.754 273.932 78.514C273.608 78.274 273.35 77.962 273.158 77.578C272.978 77.194 272.888 76.72 272.888 76.156C272.888 75.616 272.99 75.16 273.194 74.788C273.41 74.416 273.698 74.116 274.058 73.888C274.418 73.648 274.832 73.48 275.3 73.384C275.78 73.276 276.278 73.222 276.794 73.222C277.034 73.222 277.286 73.24 277.55 73.276C277.814 73.3 278.096 73.348 278.396 73.42V73.06C278.396 72.808 278.366 72.568 278.306 72.34C278.246 72.112 278.138 71.914 277.982 71.746C277.838 71.566 277.64 71.428 277.388 71.332C277.148 71.236 276.842 71.188 276.47 71.188C275.966 71.188 275.504 71.224 275.084 71.296C274.664 71.368 274.322 71.452 274.058 71.548L273.788 69.784C274.064 69.688 274.466 69.592 274.994 69.496C275.522 69.4 276.086 69.352 276.686 69.352ZM283.061 67.102L285.239 66.742V69.586H288.587V71.404H285.239V75.238C285.239 75.994 285.359 76.534 285.599 76.858C285.839 77.182 286.247 77.344 286.823 77.344C287.219 77.344 287.567 77.302 287.867 77.218C288.179 77.134 288.425 77.056 288.605 76.984L288.965 78.712C288.713 78.82 288.383 78.928 287.975 79.036C287.567 79.156 287.087 79.216 286.535 79.216C285.863 79.216 285.299 79.126 284.843 78.946C284.399 78.766 284.045 78.508 283.781 78.172C283.517 77.824 283.331 77.41 283.223 76.93C283.115 76.438 283.061 75.88 283.061 75.256V67.102ZM290.012 74.338C290.012 73.51 290.132 72.784 290.372 72.16C290.624 71.536 290.954 71.02 291.362 70.612C291.77 70.192 292.238 69.88 292.766 69.676C293.294 69.46 293.834 69.352 294.386 69.352C295.682 69.352 296.69 69.754 297.41 70.558C298.142 71.362 298.508 72.562 298.508 74.158C298.508 74.278 298.502 74.416 298.49 74.572C298.49 74.716 298.484 74.848 298.472 74.968H292.262C292.322 75.724 292.586 76.312 293.054 76.732C293.534 77.14 294.224 77.344 295.124 77.344C295.652 77.344 296.132 77.296 296.564 77.2C297.008 77.104 297.356 77.002 297.608 76.894L297.896 78.676C297.776 78.736 297.608 78.802 297.392 78.874C297.188 78.934 296.948 78.988 296.672 79.036C296.408 79.096 296.12 79.144 295.808 79.18C295.496 79.216 295.178 79.234 294.854 79.234C294.026 79.234 293.306 79.114 292.694 78.874C292.082 78.622 291.578 78.28 291.182 77.848C290.786 77.404 290.492 76.888 290.3 76.3C290.108 75.7 290.012 75.046 290.012 74.338ZM296.33 73.366C296.33 73.066 296.288 72.784 296.204 72.52C296.12 72.244 295.994 72.01 295.826 71.818C295.67 71.614 295.472 71.458 295.232 71.35C295.004 71.23 294.728 71.17 294.404 71.17C294.068 71.17 293.774 71.236 293.522 71.368C293.27 71.488 293.054 71.65 292.874 71.854C292.706 72.058 292.574 72.292 292.478 72.556C292.382 72.82 292.316 73.09 292.28 73.366H296.33ZM303.068 76.606C303.092 76.81 303.104 76.96 303.104 77.056C303.104 77.152 303.104 77.248 303.104 77.344C303.104 78.088 302.984 78.856 302.744 79.648C302.516 80.44 302.192 81.19 301.772 81.898L300.062 81.43C300.35 80.734 300.542 80.05 300.638 79.378C300.746 78.718 300.8 78.136 300.8 77.632C300.8 77.488 300.794 77.308 300.782 77.092C300.782 76.876 300.776 76.714 300.764 76.606H303.068ZM315.199 74.05C315.199 73.066 315.073 72.358 314.821 71.926C314.581 71.482 314.125 71.26 313.453 71.26C313.213 71.26 312.949 71.278 312.661 71.314C312.373 71.35 312.157 71.38 312.013 71.404V79H309.835V69.892C310.255 69.772 310.801 69.658 311.473 69.55C312.157 69.442 312.877 69.388 313.633 69.388C314.281 69.388 314.809 69.472 315.217 69.64C315.637 69.808 315.985 70.03 316.261 70.306C316.393 70.21 316.561 70.108 316.765 70C316.969 69.892 317.197 69.796 317.449 69.712C317.701 69.616 317.965 69.538 318.241 69.478C318.529 69.418 318.817 69.388 319.105 69.388C319.837 69.388 320.437 69.496 320.905 69.712C321.385 69.916 321.757 70.21 322.021 70.594C322.297 70.966 322.483 71.422 322.579 71.962C322.687 72.49 322.741 73.072 322.741 73.708V79H320.563V74.05C320.563 73.066 320.443 72.358 320.203 71.926C319.963 71.482 319.501 71.26 318.817 71.26C318.469 71.26 318.139 71.32 317.827 71.44C317.515 71.548 317.281 71.656 317.125 71.764C317.221 72.064 317.287 72.382 317.323 72.718C317.359 73.054 317.377 73.414 317.377 73.798V79H315.199V74.05ZM333.923 74.284C333.923 75.028 333.815 75.706 333.599 76.318C333.383 76.93 333.077 77.452 332.681 77.884C332.285 78.316 331.805 78.652 331.241 78.892C330.689 79.132 330.077 79.252 329.405 79.252C328.733 79.252 328.121 79.132 327.569 78.892C327.017 78.652 326.543 78.316 326.147 77.884C325.751 77.452 325.439 76.93 325.211 76.318C324.995 75.706 324.887 75.028 324.887 74.284C324.887 73.54 324.995 72.868 325.211 72.268C325.439 71.656 325.751 71.134 326.147 70.702C326.555 70.27 327.035 69.94 327.587 69.712C328.139 69.472 328.745 69.352 329.405 69.352C330.065 69.352 330.671 69.472 331.223 69.712C331.787 69.94 332.267 70.27 332.663 70.702C333.059 71.134 333.365 71.656 333.581 72.268C333.809 72.868 333.923 73.54 333.923 74.284ZM331.691 74.284C331.691 73.348 331.487 72.61 331.079 72.07C330.683 71.518 330.125 71.242 329.405 71.242C328.685 71.242 328.121 71.518 327.713 72.07C327.317 72.61 327.119 73.348 327.119 74.284C327.119 75.232 327.317 75.982 327.713 76.534C328.121 77.086 328.685 77.362 329.405 77.362C330.125 77.362 330.683 77.086 331.079 76.534C331.487 75.982 331.691 75.232 331.691 74.284ZM341.531 71.548C341.351 71.488 341.099 71.428 340.775 71.368C340.463 71.296 340.097 71.26 339.677 71.26C339.437 71.26 339.179 71.284 338.903 71.332C338.639 71.38 338.453 71.422 338.345 71.458V79H336.167V70.036C336.587 69.88 337.109 69.736 337.733 69.604C338.369 69.46 339.071 69.388 339.839 69.388C339.983 69.388 340.151 69.4 340.343 69.424C340.535 69.436 340.727 69.46 340.919 69.496C341.111 69.52 341.297 69.556 341.477 69.604C341.657 69.64 341.801 69.676 341.909 69.712L341.531 71.548ZM343.319 67.102L345.497 66.742V69.586H348.845V71.404H345.497V75.238C345.497 75.994 345.617 76.534 345.857 76.858C346.097 77.182 346.505 77.344 347.081 77.344C347.477 77.344 347.825 77.302 348.125 77.218C348.437 77.134 348.683 77.056 348.863 76.984L349.223 78.712C348.971 78.82 348.641 78.928 348.233 79.036C347.825 79.156 347.345 79.216 346.793 79.216C346.121 79.216 345.557 79.126 345.101 78.946C344.657 78.766 344.303 78.508 344.039 78.172C343.775 77.824 343.589 77.41 343.481 76.93C343.373 76.438 343.319 75.88 343.319 75.256V67.102ZM352.502 74.05C352.502 74.974 352.7 75.652 353.096 76.084C353.504 76.504 354.026 76.714 354.662 76.714C355.01 76.714 355.334 76.666 355.634 76.57C355.946 76.474 356.198 76.36 356.39 76.228V71.35C356.234 71.314 356.042 71.284 355.814 71.26C355.586 71.224 355.298 71.206 354.95 71.206C354.158 71.206 353.552 71.47 353.132 71.998C352.712 72.514 352.502 73.198 352.502 74.05ZM358.568 78.046C358.568 79.546 358.184 80.644 357.416 81.34C356.66 82.036 355.496 82.384 353.924 82.384C353.348 82.384 352.784 82.336 352.232 82.24C351.692 82.144 351.2 82.018 350.756 81.862L351.152 80.008C351.524 80.164 351.944 80.29 352.412 80.386C352.892 80.482 353.408 80.53 353.96 80.53C354.836 80.53 355.46 80.35 355.832 79.99C356.204 79.63 356.39 79.096 356.39 78.388V78.028C356.174 78.136 355.886 78.244 355.526 78.352C355.178 78.46 354.776 78.514 354.32 78.514C353.72 78.514 353.168 78.418 352.664 78.226C352.172 78.034 351.746 77.752 351.386 77.38C351.038 77.008 350.762 76.546 350.558 75.994C350.366 75.43 350.27 74.782 350.27 74.05C350.27 73.366 350.372 72.736 350.576 72.16C350.792 71.584 351.098 71.092 351.494 70.684C351.902 70.276 352.394 69.958 352.97 69.73C353.546 69.502 354.2 69.388 354.932 69.388C355.64 69.388 356.312 69.442 356.948 69.55C357.584 69.658 358.124 69.772 358.568 69.892V78.046ZM364.651 77.47C365.323 77.47 365.833 77.434 366.181 77.362V74.95C366.061 74.914 365.887 74.878 365.659 74.842C365.431 74.806 365.179 74.788 364.903 74.788C364.663 74.788 364.417 74.806 364.165 74.842C363.925 74.878 363.703 74.944 363.499 75.04C363.307 75.136 363.151 75.274 363.031 75.454C362.911 75.622 362.851 75.838 362.851 76.102C362.851 76.618 363.013 76.978 363.337 77.182C363.661 77.374 364.099 77.47 364.651 77.47ZM364.471 69.352C365.191 69.352 365.797 69.442 366.289 69.622C366.781 69.802 367.171 70.054 367.459 70.378C367.759 70.702 367.969 71.098 368.089 71.566C368.221 72.022 368.287 72.526 368.287 73.078V78.784C367.951 78.856 367.441 78.94 366.757 79.036C366.085 79.144 365.323 79.198 364.471 79.198C363.907 79.198 363.391 79.144 362.923 79.036C362.455 78.928 362.053 78.754 361.717 78.514C361.393 78.274 361.135 77.962 360.943 77.578C360.763 77.194 360.673 76.72 360.673 76.156C360.673 75.616 360.775 75.16 360.979 74.788C361.195 74.416 361.483 74.116 361.843 73.888C362.203 73.648 362.617 73.48 363.085 73.384C363.565 73.276 364.063 73.222 364.579 73.222C364.819 73.222 365.071 73.24 365.335 73.276C365.599 73.3 365.881 73.348 366.181 73.42V73.06C366.181 72.808 366.151 72.568 366.091 72.34C366.031 72.112 365.923 71.914 365.767 71.746C365.623 71.566 365.425 71.428 365.173 71.332C364.933 71.236 364.627 71.188 364.255 71.188C363.751 71.188 363.289 71.224 362.869 71.296C362.449 71.368 362.107 71.452 361.843 71.548L361.573 69.784C361.849 69.688 362.251 69.592 362.779 69.496C363.307 69.4 363.871 69.352 364.471 69.352ZM372.664 74.05C372.664 74.974 372.862 75.652 373.258 76.084C373.666 76.504 374.188 76.714 374.824 76.714C375.172 76.714 375.496 76.666 375.796 76.57C376.108 76.474 376.36 76.36 376.552 76.228V71.35C376.396 71.314 376.204 71.284 375.976 71.26C375.748 71.224 375.46 71.206 375.112 71.206C374.32 71.206 373.714 71.47 373.294 71.998C372.874 72.514 372.664 73.198 372.664 74.05ZM378.73 78.046C378.73 79.546 378.346 80.644 377.578 81.34C376.822 82.036 375.658 82.384 374.086 82.384C373.51 82.384 372.946 82.336 372.394 82.24C371.854 82.144 371.362 82.018 370.918 81.862L371.314 80.008C371.686 80.164 372.106 80.29 372.574 80.386C373.054 80.482 373.57 80.53 374.122 80.53C374.998 80.53 375.622 80.35 375.994 79.99C376.366 79.63 376.552 79.096 376.552 78.388V78.028C376.336 78.136 376.048 78.244 375.688 78.352C375.34 78.46 374.938 78.514 374.482 78.514C373.882 78.514 373.33 78.418 372.826 78.226C372.334 78.034 371.908 77.752 371.548 77.38C371.2 77.008 370.924 76.546 370.72 75.994C370.528 75.43 370.432 74.782 370.432 74.05C370.432 73.366 370.534 72.736 370.738 72.16C370.954 71.584 371.26 71.092 371.656 70.684C372.064 70.276 372.556 69.958 373.132 69.73C373.708 69.502 374.362 69.388 375.094 69.388C375.802 69.388 376.474 69.442 377.11 69.55C377.746 69.658 378.286 69.772 378.73 69.892V78.046ZM380.979 74.338C380.979 73.51 381.099 72.784 381.339 72.16C381.591 71.536 381.921 71.02 382.329 70.612C382.737 70.192 383.205 69.88 383.733 69.676C384.261 69.46 384.801 69.352 385.353 69.352C386.649 69.352 387.657 69.754 388.377 70.558C389.109 71.362 389.475 72.562 389.475 74.158C389.475 74.278 389.469 74.416 389.457 74.572C389.457 74.716 389.451 74.848 389.439 74.968H383.229C383.289 75.724 383.553 76.312 384.021 76.732C384.501 77.14 385.191 77.344 386.091 77.344C386.619 77.344 387.099 77.296 387.531 77.2C387.975 77.104 388.323 77.002 388.575 76.894L388.863 78.676C388.743 78.736 388.575 78.802 388.359 78.874C388.155 78.934 387.915 78.988 387.639 79.036C387.375 79.096 387.087 79.144 386.775 79.18C386.463 79.216 386.145 79.234 385.821 79.234C384.993 79.234 384.273 79.114 383.661 78.874C383.049 78.622 382.545 78.28 382.149 77.848C381.753 77.404 381.459 76.888 381.267 76.3C381.075 75.7 380.979 75.046 380.979 74.338ZM387.297 73.366C387.297 73.066 387.255 72.784 387.171 72.52C387.087 72.244 386.961 72.01 386.793 71.818C386.637 71.614 386.439 71.458 386.199 71.35C385.971 71.23 385.695 71.17 385.371 71.17C385.035 71.17 384.741 71.236 384.489 71.368C384.237 71.488 384.021 71.65 383.841 71.854C383.673 72.058 383.541 72.292 383.445 72.556C383.349 72.82 383.283 73.09 383.247 73.366H387.297ZM394.034 76.606C394.058 76.81 394.07 76.96 394.07 77.056C394.07 77.152 394.07 77.248 394.07 77.344C394.07 78.088 393.95 78.856 393.71 79.648C393.482 80.44 393.158 81.19 392.738 81.898L391.028 81.43C391.316 80.734 391.508 80.05 391.604 79.378C391.712 78.718 391.766 78.136 391.766 77.632C391.766 77.488 391.76 77.308 391.748 77.092C391.748 76.876 391.742 76.714 391.73 76.606H394.034ZM404.114 77.47C404.786 77.47 405.296 77.434 405.644 77.362V74.95C405.524 74.914 405.35 74.878 405.122 74.842C404.894 74.806 404.642 74.788 404.366 74.788C404.126 74.788 403.88 74.806 403.628 74.842C403.388 74.878 403.166 74.944 402.962 75.04C402.77 75.136 402.614 75.274 402.494 75.454C402.374 75.622 402.314 75.838 402.314 76.102C402.314 76.618 402.476 76.978 402.8 77.182C403.124 77.374 403.562 77.47 404.114 77.47ZM403.934 69.352C404.654 69.352 405.26 69.442 405.752 69.622C406.244 69.802 406.634 70.054 406.922 70.378C407.222 70.702 407.432 71.098 407.552 71.566C407.684 72.022 407.75 72.526 407.75 73.078V78.784C407.414 78.856 406.904 78.94 406.22 79.036C405.548 79.144 404.786 79.198 403.934 79.198C403.37 79.198 402.854 79.144 402.386 79.036C401.918 78.928 401.516 78.754 401.18 78.514C400.856 78.274 400.598 77.962 400.406 77.578C400.226 77.194 400.136 76.72 400.136 76.156C400.136 75.616 400.238 75.16 400.442 74.788C400.658 74.416 400.946 74.116 401.306 73.888C401.666 73.648 402.08 73.48 402.548 73.384C403.028 73.276 403.526 73.222 404.042 73.222C404.282 73.222 404.534 73.24 404.798 73.276C405.062 73.3 405.344 73.348 405.644 73.42V73.06C405.644 72.808 405.614 72.568 405.554 72.34C405.494 72.112 405.386 71.914 405.23 71.746C405.086 71.566 404.888 71.428 404.636 71.332C404.396 71.236 404.09 71.188 403.718 71.188C403.214 71.188 402.752 71.224 402.332 71.296C401.912 71.368 401.57 71.452 401.306 71.548L401.036 69.784C401.312 69.688 401.714 69.592 402.242 69.496C402.77 69.4 403.334 69.352 403.934 69.352ZM410.417 69.892C410.837 69.772 411.383 69.658 412.055 69.55C412.727 69.442 413.471 69.388 414.287 69.388C415.055 69.388 415.697 69.496 416.213 69.712C416.729 69.916 417.137 70.21 417.437 70.594C417.749 70.966 417.965 71.422 418.085 71.962C418.217 72.49 418.283 73.072 418.283 73.708V79H416.105V74.05C416.105 73.546 416.069 73.12 415.997 72.772C415.937 72.412 415.829 72.124 415.673 71.908C415.529 71.68 415.325 71.518 415.061 71.422C414.809 71.314 414.497 71.26 414.125 71.26C413.849 71.26 413.561 71.278 413.261 71.314C412.961 71.35 412.739 71.38 412.595 71.404V79H410.417V69.892ZM422.657 74.266C422.657 75.226 422.885 75.982 423.341 76.534C423.797 77.074 424.427 77.344 425.231 77.344C425.579 77.344 425.873 77.332 426.113 77.308C426.365 77.272 426.569 77.236 426.725 77.2V71.8C426.533 71.668 426.275 71.548 425.951 71.44C425.639 71.32 425.303 71.26 424.943 71.26C424.151 71.26 423.569 71.53 423.197 72.07C422.837 72.61 422.657 73.342 422.657 74.266ZM428.903 78.712C428.471 78.844 427.925 78.964 427.265 79.072C426.617 79.18 425.933 79.234 425.213 79.234C424.469 79.234 423.803 79.12 423.215 78.892C422.627 78.664 422.123 78.34 421.703 77.92C421.295 77.488 420.977 76.972 420.749 76.372C420.533 75.76 420.425 75.076 420.425 74.32C420.425 73.576 420.515 72.904 420.695 72.304C420.887 71.692 421.163 71.17 421.523 70.738C421.883 70.306 422.321 69.976 422.837 69.748C423.353 69.508 423.947 69.388 424.619 69.388C425.075 69.388 425.477 69.442 425.825 69.55C426.173 69.658 426.473 69.778 426.725 69.91V65.392L428.903 65.032V78.712ZM24.864 96.302C24.864 95.606 24.972 94.958 25.188 94.358C25.404 93.746 25.71 93.218 26.106 92.774C26.514 92.33 27.006 91.982 27.582 91.73C28.158 91.478 28.806 91.352 29.526 91.352C30.414 91.352 31.254 91.514 32.046 91.838L31.578 93.62C31.326 93.512 31.038 93.422 30.714 93.35C30.402 93.278 30.066 93.242 29.706 93.242C28.854 93.242 28.206 93.512 27.762 94.052C27.318 94.58 27.096 95.33 27.096 96.302C27.096 97.238 27.306 97.982 27.726 98.534C28.146 99.074 28.854 99.344 29.85 99.344C30.222 99.344 30.588 99.308 30.948 99.236C31.308 99.164 31.62 99.074 31.884 98.966L32.19 100.766C31.95 100.886 31.584 100.994 31.092 101.09C30.612 101.186 30.114 101.234 29.598 101.234C28.794 101.234 28.092 101.114 27.492 100.874C26.904 100.622 26.412 100.28 26.016 99.848C25.632 99.404 25.344 98.882 25.152 98.282C24.96 97.67 24.864 97.01 24.864 96.302ZM42.1969 96.284C42.1969 97.028 42.0889 97.706 41.8729 98.318C41.6569 98.93 41.3509 99.452 40.9549 99.884C40.5589 100.316 40.0789 100.652 39.5149 100.892C38.9629 101.132 38.3509 101.252 37.6789 101.252C37.0069 101.252 36.3949 101.132 35.8429 100.892C35.2909 100.652 34.8169 100.316 34.4209 99.884C34.0249 99.452 33.7129 98.93 33.4849 98.318C33.2689 97.706 33.1609 97.028 33.1609 96.284C33.1609 95.54 33.2689 94.868 33.4849 94.268C33.7129 93.656 34.0249 93.134 34.4209 92.702C34.8289 92.27 35.3089 91.94 35.8609 91.712C36.4129 91.472 37.0189 91.352 37.6789 91.352C38.3389 91.352 38.9449 91.472 39.4969 91.712C40.0609 91.94 40.5409 92.27 40.9369 92.702C41.3329 93.134 41.6389 93.656 41.8549 94.268C42.0829 94.868 42.1969 95.54 42.1969 96.284ZM39.9649 96.284C39.9649 95.348 39.7609 94.61 39.3529 94.07C38.9569 93.518 38.3989 93.242 37.6789 93.242C36.9589 93.242 36.3949 93.518 35.9869 94.07C35.5909 94.61 35.3929 95.348 35.3929 96.284C35.3929 97.232 35.5909 97.982 35.9869 98.534C36.3949 99.086 36.9589 99.362 37.6789 99.362C38.3989 99.362 38.9569 99.086 39.3529 98.534C39.7609 97.982 39.9649 97.232 39.9649 96.284ZM49.8047 93.548C49.6247 93.488 49.3727 93.428 49.0487 93.368C48.7367 93.296 48.3707 93.26 47.9507 93.26C47.7107 93.26 47.4527 93.284 47.1767 93.332C46.9127 93.38 46.7267 93.422 46.6187 93.458V101H44.4407V92.036C44.8607 91.88 45.3827 91.736 46.0067 91.604C46.6427 91.46 47.3447 91.388 48.1127 91.388C48.2567 91.388 48.4247 91.4 48.6167 91.424C48.8087 91.436 49.0007 91.46 49.1927 91.496C49.3847 91.52 49.5707 91.556 49.7507 91.604C49.9307 91.64 50.0747 91.676 50.1827 91.712L49.8047 93.548ZM57.9465 96.338C57.9465 95.366 57.7245 94.61 57.2805 94.07C56.8485 93.53 56.1465 93.26 55.1745 93.26C54.9705 93.26 54.7545 93.272 54.5265 93.296C54.3105 93.308 54.0945 93.344 53.8785 93.404V98.786C54.0705 98.918 54.3225 99.044 54.6345 99.164C54.9585 99.272 55.3005 99.326 55.6605 99.326C56.4525 99.326 57.0285 99.056 57.3885 98.516C57.7605 97.976 57.9465 97.25 57.9465 96.338ZM60.1785 96.302C60.1785 97.022 60.0825 97.682 59.8905 98.282C59.7105 98.882 59.4465 99.398 59.0985 99.83C58.7505 100.262 58.3125 100.598 57.7845 100.838C57.2685 101.078 56.6805 101.198 56.0205 101.198C55.5765 101.198 55.1685 101.144 54.7965 101.036C54.4245 100.928 54.1185 100.808 53.8785 100.676V104.33H51.7005V91.892C52.1445 91.772 52.6905 91.658 53.3385 91.55C53.9865 91.442 54.6705 91.388 55.3905 91.388C56.1345 91.388 56.8005 91.502 57.3885 91.73C57.9765 91.958 58.4745 92.288 58.8825 92.72C59.3025 93.14 59.6205 93.656 59.8365 94.268C60.0645 94.868 60.1785 95.546 60.1785 96.302ZM70.9371 96.284C70.9371 97.028 70.8291 97.706 70.6131 98.318C70.3971 98.93 70.0911 99.452 69.6951 99.884C69.2991 100.316 68.8191 100.652 68.2551 100.892C67.7031 101.132 67.0911 101.252 66.4191 101.252C65.7471 101.252 65.1351 101.132 64.5831 100.892C64.0311 100.652 63.5571 100.316 63.1611 99.884C62.7651 99.452 62.4531 98.93 62.2251 98.318C62.0091 97.706 61.9011 97.028 61.9011 96.284C61.9011 95.54 62.0091 94.868 62.2251 94.268C62.4531 93.656 62.7651 93.134 63.1611 92.702C63.5691 92.27 64.0491 91.94 64.6011 91.712C65.1531 91.472 65.7591 91.352 66.4191 91.352C67.0791 91.352 67.6851 91.472 68.2371 91.712C68.8011 91.94 69.2811 92.27 69.6771 92.702C70.0731 93.134 70.3791 93.656 70.5951 94.268C70.8231 94.868 70.9371 95.54 70.9371 96.284ZM68.7051 96.284C68.7051 95.348 68.5011 94.61 68.0931 94.07C67.6971 93.518 67.1391 93.242 66.4191 93.242C65.6991 93.242 65.1351 93.518 64.7271 94.07C64.3311 94.61 64.1331 95.348 64.1331 96.284C64.1331 97.232 64.3311 97.982 64.7271 98.534C65.1351 99.086 65.6991 99.362 66.4191 99.362C67.1391 99.362 67.6971 99.086 68.0931 98.534C68.5011 97.982 68.7051 97.232 68.7051 96.284ZM78.5449 93.548C78.3649 93.488 78.1129 93.428 77.7889 93.368C77.4769 93.296 77.1109 93.26 76.6909 93.26C76.4509 93.26 76.1929 93.284 75.9169 93.332C75.6529 93.38 75.4669 93.422 75.3589 93.458V101H73.1809V92.036C73.6009 91.88 74.1229 91.736 74.7469 91.604C75.3829 91.46 76.0849 91.388 76.8529 91.388C76.9969 91.388 77.1649 91.4 77.3569 91.424C77.5489 91.436 77.7409 91.46 77.9329 91.496C78.1249 91.52 78.3109 91.556 78.4909 91.604C78.6709 91.64 78.8149 91.676 78.9229 91.712L78.5449 93.548ZM83.7527 99.47C84.4247 99.47 84.9347 99.434 85.2827 99.362V96.95C85.1627 96.914 84.9887 96.878 84.7607 96.842C84.5327 96.806 84.2807 96.788 84.0047 96.788C83.7647 96.788 83.5187 96.806 83.2667 96.842C83.0267 96.878 82.8047 96.944 82.6007 97.04C82.4087 97.136 82.2527 97.274 82.1327 97.454C82.0127 97.622 81.9527 97.838 81.9527 98.102C81.9527 98.618 82.1147 98.978 82.4387 99.182C82.7627 99.374 83.2007 99.47 83.7527 99.47ZM83.5727 91.352C84.2927 91.352 84.8987 91.442 85.3907 91.622C85.8827 91.802 86.2727 92.054 86.5607 92.378C86.8607 92.702 87.0707 93.098 87.1907 93.566C87.3227 94.022 87.3887 94.526 87.3887 95.078V100.784C87.0527 100.856 86.5427 100.94 85.8587 101.036C85.1867 101.144 84.4247 101.198 83.5727 101.198C83.0087 101.198 82.4927 101.144 82.0247 101.036C81.5567 100.928 81.1547 100.754 80.8187 100.514C80.4947 100.274 80.2367 99.962 80.0447 99.578C79.8647 99.194 79.7747 98.72 79.7747 98.156C79.7747 97.616 79.8767 97.16 80.0807 96.788C80.2967 96.416 80.5847 96.116 80.9447 95.888C81.3047 95.648 81.7187 95.48 82.1867 95.384C82.6667 95.276 83.1647 95.222 83.6807 95.222C83.9207 95.222 84.1727 95.24 84.4367 95.276C84.7007 95.3 84.9827 95.348 85.2827 95.42V95.06C85.2827 94.808 85.2527 94.568 85.1927 94.34C85.1327 94.112 85.0247 93.914 84.8687 93.746C84.7247 93.566 84.5267 93.428 84.2747 93.332C84.0347 93.236 83.7287 93.188 83.3567 93.188C82.8527 93.188 82.3907 93.224 81.9707 93.296C81.5507 93.368 81.2087 93.452 80.9447 93.548L80.6747 91.784C80.9507 91.688 81.3527 91.592 81.8807 91.496C82.4087 91.4 82.9727 91.352 83.5727 91.352ZM89.9479 89.102L92.1259 88.742V91.586H95.4739V93.404H92.1259V97.238C92.1259 97.994 92.2459 98.534 92.4859 98.858C92.7259 99.182 93.1339 99.344 93.7099 99.344C94.1059 99.344 94.4539 99.302 94.7539 99.218C95.0659 99.134 95.3119 99.056 95.4919 98.984L95.8519 100.712C95.5999 100.82 95.2699 100.928 94.8619 101.036C94.4539 101.156 93.9739 101.216 93.4219 101.216C92.7499 101.216 92.1859 101.126 91.7299 100.946C91.2859 100.766 90.9319 100.508 90.6679 100.172C90.4039 99.824 90.2179 99.41 90.1099 98.93C90.0019 98.438 89.9479 97.88 89.9479 97.256V89.102ZM96.8992 96.338C96.8992 95.51 97.0192 94.784 97.2592 94.16C97.5112 93.536 97.8412 93.02 98.2492 92.612C98.6572 92.192 99.1252 91.88 99.6532 91.676C100.181 91.46 100.721 91.352 101.273 91.352C102.569 91.352 103.577 91.754 104.297 92.558C105.029 93.362 105.395 94.562 105.395 96.158C105.395 96.278 105.389 96.416 105.377 96.572C105.377 96.716 105.371 96.848 105.359 96.968H99.1492C99.2092 97.724 99.4732 98.312 99.9412 98.732C100.421 99.14 101.111 99.344 102.011 99.344C102.539 99.344 103.019 99.296 103.451 99.2C103.895 99.104 104.243 99.002 104.495 98.894L104.783 100.676C104.663 100.736 104.495 100.802 104.279 100.874C104.075 100.934 103.835 100.988 103.559 101.036C103.295 101.096 103.007 101.144 102.695 101.18C102.383 101.216 102.065 101.234 101.741 101.234C100.913 101.234 100.193 101.114 99.5812 100.874C98.9692 100.622 98.4652 100.28 98.0692 99.848C97.6732 99.404 97.3792 98.888 97.1872 98.3C96.9952 97.7 96.8992 97.046 96.8992 96.338ZM103.217 95.366C103.217 95.066 103.175 94.784 103.091 94.52C103.007 94.244 102.881 94.01 102.713 93.818C102.557 93.614 102.359 93.458 102.119 93.35C101.891 93.23 101.615 93.17 101.291 93.17C100.955 93.17 100.661 93.236 100.409 93.368C100.157 93.488 99.9412 93.65 99.7612 93.854C99.5932 94.058 99.4612 94.292 99.3652 94.556C99.2692 94.82 99.2032 95.09 99.1672 95.366H103.217ZM115.218 99.47C115.89 99.47 116.4 99.434 116.748 99.362V96.95C116.628 96.914 116.454 96.878 116.226 96.842C115.998 96.806 115.746 96.788 115.47 96.788C115.23 96.788 114.984 96.806 114.732 96.842C114.492 96.878 114.27 96.944 114.066 97.04C113.874 97.136 113.718 97.274 113.598 97.454C113.478 97.622 113.418 97.838 113.418 98.102C113.418 98.618 113.58 98.978 113.904 99.182C114.228 99.374 114.666 99.47 115.218 99.47ZM115.038 91.352C115.758 91.352 116.364 91.442 116.856 91.622C117.348 91.802 117.738 92.054 118.026 92.378C118.326 92.702 118.536 93.098 118.656 93.566C118.788 94.022 118.854 94.526 118.854 95.078V100.784C118.518 100.856 118.008 100.94 117.324 101.036C116.652 101.144 115.89 101.198 115.038 101.198C114.474 101.198 113.958 101.144 113.49 101.036C113.022 100.928 112.62 100.754 112.284 100.514C111.96 100.274 111.702 99.962 111.51 99.578C111.33 99.194 111.24 98.72 111.24 98.156C111.24 97.616 111.342 97.16 111.546 96.788C111.762 96.416 112.05 96.116 112.41 95.888C112.77 95.648 113.184 95.48 113.652 95.384C114.132 95.276 114.63 95.222 115.146 95.222C115.386 95.222 115.638 95.24 115.902 95.276C116.166 95.3 116.448 95.348 116.748 95.42V95.06C116.748 94.808 116.718 94.568 116.658 94.34C116.598 94.112 116.49 93.914 116.334 93.746C116.19 93.566 115.992 93.428 115.74 93.332C115.5 93.236 115.194 93.188 114.822 93.188C114.318 93.188 113.856 93.224 113.436 93.296C113.016 93.368 112.674 93.452 112.41 93.548L112.14 91.784C112.416 91.688 112.818 91.592 113.346 91.496C113.874 91.4 114.438 91.352 115.038 91.352ZM120.999 96.302C120.999 95.606 121.107 94.958 121.323 94.358C121.539 93.746 121.845 93.218 122.241 92.774C122.649 92.33 123.141 91.982 123.717 91.73C124.293 91.478 124.941 91.352 125.661 91.352C126.549 91.352 127.389 91.514 128.181 91.838L127.713 93.62C127.461 93.512 127.173 93.422 126.849 93.35C126.537 93.278 126.201 93.242 125.841 93.242C124.989 93.242 124.341 93.512 123.897 94.052C123.453 94.58 123.231 95.33 123.231 96.302C123.231 97.238 123.441 97.982 123.861 98.534C124.281 99.074 124.989 99.344 125.985 99.344C126.357 99.344 126.723 99.308 127.083 99.236C127.443 99.164 127.755 99.074 128.019 98.966L128.325 100.766C128.085 100.886 127.719 100.994 127.227 101.09C126.747 101.186 126.249 101.234 125.733 101.234C124.929 101.234 124.227 101.114 123.627 100.874C123.039 100.622 122.547 100.28 122.151 99.848C121.767 99.404 121.479 98.882 121.287 98.282C121.095 97.67 120.999 97.01 120.999 96.302ZM129.489 96.302C129.489 95.606 129.597 94.958 129.813 94.358C130.029 93.746 130.335 93.218 130.731 92.774C131.139 92.33 131.631 91.982 132.207 91.73C132.783 91.478 133.431 91.352 134.151 91.352C135.039 91.352 135.879 91.514 136.671 91.838L136.203 93.62C135.951 93.512 135.663 93.422 135.339 93.35C135.027 93.278 134.691 93.242 134.331 93.242C133.479 93.242 132.831 93.512 132.387 94.052C131.943 94.58 131.721 95.33 131.721 96.302C131.721 97.238 131.931 97.982 132.351 98.534C132.771 99.074 133.479 99.344 134.475 99.344C134.847 99.344 135.213 99.308 135.573 99.236C135.933 99.164 136.245 99.074 136.509 98.966L136.815 100.766C136.575 100.886 136.209 100.994 135.717 101.09C135.237 101.186 134.739 101.234 134.223 101.234C133.419 101.234 132.717 101.114 132.117 100.874C131.529 100.622 131.037 100.28 130.641 99.848C130.257 99.404 129.969 98.882 129.777 98.282C129.585 97.67 129.489 97.01 129.489 96.302ZM146.822 96.284C146.822 97.028 146.714 97.706 146.498 98.318C146.282 98.93 145.976 99.452 145.58 99.884C145.184 100.316 144.704 100.652 144.14 100.892C143.588 101.132 142.976 101.252 142.304 101.252C141.632 101.252 141.02 101.132 140.468 100.892C139.916 100.652 139.442 100.316 139.046 99.884C138.65 99.452 138.338 98.93 138.11 98.318C137.894 97.706 137.786 97.028 137.786 96.284C137.786 95.54 137.894 94.868 138.11 94.268C138.338 93.656 138.65 93.134 139.046 92.702C139.454 92.27 139.934 91.94 140.486 91.712C141.038 91.472 141.644 91.352 142.304 91.352C142.964 91.352 143.57 91.472 144.122 91.712C144.686 91.94 145.166 92.27 145.562 92.702C145.958 93.134 146.264 93.656 146.48 94.268C146.708 94.868 146.822 95.54 146.822 96.284ZM144.59 96.284C144.59 95.348 144.386 94.61 143.978 94.07C143.582 93.518 143.024 93.242 142.304 93.242C141.584 93.242 141.02 93.518 140.612 94.07C140.216 94.61 140.018 95.348 140.018 96.284C140.018 97.232 140.216 97.982 140.612 98.534C141.02 99.086 141.584 99.362 142.304 99.362C143.024 99.362 143.582 99.086 143.978 98.534C144.386 97.982 144.59 97.232 144.59 96.284ZM156.788 100.712C156.368 100.82 155.822 100.928 155.15 101.036C154.478 101.156 153.74 101.216 152.936 101.216C152.18 101.216 151.544 101.108 151.028 100.892C150.524 100.676 150.116 100.376 149.804 99.992C149.504 99.608 149.288 99.152 149.156 98.624C149.024 98.084 148.958 97.496 148.958 96.86V91.586H151.136V96.518C151.136 97.526 151.28 98.246 151.568 98.678C151.868 99.11 152.384 99.326 153.116 99.326C153.38 99.326 153.656 99.314 153.944 99.29C154.244 99.266 154.466 99.236 154.61 99.2V91.586H156.788V100.712ZM159.56 91.892C159.98 91.772 160.526 91.658 161.198 91.55C161.87 91.442 162.614 91.388 163.43 91.388C164.198 91.388 164.84 91.496 165.356 91.712C165.872 91.916 166.28 92.21 166.58 92.594C166.892 92.966 167.108 93.422 167.228 93.962C167.36 94.49 167.426 95.072 167.426 95.708V101H165.248V96.05C165.248 95.546 165.212 95.12 165.14 94.772C165.08 94.412 164.972 94.124 164.816 93.908C164.672 93.68 164.468 93.518 164.204 93.422C163.952 93.314 163.64 93.26 163.268 93.26C162.992 93.26 162.704 93.278 162.404 93.314C162.104 93.35 161.882 93.38 161.738 93.404V101H159.56V91.892ZM169.981 89.102L172.159 88.742V91.586H175.507V93.404H172.159V97.238C172.159 97.994 172.279 98.534 172.519 98.858C172.759 99.182 173.167 99.344 173.743 99.344C174.139 99.344 174.487 99.302 174.787 99.218C175.099 99.134 175.345 99.056 175.525 98.984L175.885 100.712C175.633 100.82 175.303 100.928 174.895 101.036C174.487 101.156 174.007 101.216 173.455 101.216C172.783 101.216 172.219 101.126 171.763 100.946C171.319 100.766 170.965 100.508 170.701 100.172C170.437 99.824 170.251 99.41 170.143 98.93C170.035 98.438 169.981 97.88 169.981 97.256V89.102ZM184.172 99.434C184.748 99.434 185.168 99.368 185.432 99.236C185.696 99.092 185.828 98.852 185.828 98.516C185.828 98.204 185.684 97.946 185.396 97.742C185.12 97.538 184.658 97.316 184.01 97.076C183.614 96.932 183.248 96.782 182.912 96.626C182.588 96.458 182.306 96.266 182.066 96.05C181.826 95.834 181.634 95.576 181.49 95.276C181.358 94.964 181.292 94.586 181.292 94.142C181.292 93.278 181.61 92.6 182.246 92.108C182.882 91.604 183.746 91.352 184.838 91.352C185.39 91.352 185.918 91.406 186.422 91.514C186.926 91.61 187.304 91.706 187.556 91.802L187.16 93.566C186.92 93.458 186.614 93.362 186.242 93.278C185.87 93.182 185.438 93.134 184.946 93.134C184.502 93.134 184.142 93.212 183.866 93.368C183.59 93.512 183.452 93.74 183.452 94.052C183.452 94.208 183.476 94.346 183.524 94.466C183.584 94.586 183.68 94.7 183.812 94.808C183.944 94.904 184.118 95.006 184.334 95.114C184.55 95.21 184.814 95.312 185.126 95.42C185.642 95.612 186.08 95.804 186.44 95.996C186.8 96.176 187.094 96.386 187.322 96.626C187.562 96.854 187.736 97.118 187.844 97.418C187.952 97.718 188.006 98.078 188.006 98.498C188.006 99.398 187.67 100.082 186.998 100.55C186.338 101.006 185.39 101.234 184.154 101.234C183.326 101.234 182.66 101.162 182.156 101.018C181.652 100.886 181.298 100.778 181.094 100.694L181.472 98.876C181.796 99.008 182.18 99.134 182.624 99.254C183.08 99.374 183.596 99.434 184.172 99.434ZM189.518 96.338C189.518 95.51 189.638 94.784 189.878 94.16C190.13 93.536 190.46 93.02 190.868 92.612C191.276 92.192 191.744 91.88 192.272 91.676C192.8 91.46 193.34 91.352 193.892 91.352C195.188 91.352 196.196 91.754 196.916 92.558C197.648 93.362 198.014 94.562 198.014 96.158C198.014 96.278 198.008 96.416 197.996 96.572C197.996 96.716 197.99 96.848 197.978 96.968H191.768C191.828 97.724 192.092 98.312 192.56 98.732C193.04 99.14 193.73 99.344 194.63 99.344C195.158 99.344 195.638 99.296 196.07 99.2C196.514 99.104 196.862 99.002 197.114 98.894L197.402 100.676C197.282 100.736 197.114 100.802 196.898 100.874C196.694 100.934 196.454 100.988 196.178 101.036C195.914 101.096 195.626 101.144 195.314 101.18C195.002 101.216 194.684 101.234 194.36 101.234C193.532 101.234 192.812 101.114 192.2 100.874C191.588 100.622 191.084 100.28 190.688 99.848C190.292 99.404 189.998 98.888 189.806 98.3C189.614 97.7 189.518 97.046 189.518 96.338ZM195.836 95.366C195.836 95.066 195.794 94.784 195.71 94.52C195.626 94.244 195.5 94.01 195.332 93.818C195.176 93.614 194.978 93.458 194.738 93.35C194.51 93.23 194.234 93.17 193.91 93.17C193.574 93.17 193.28 93.236 193.028 93.368C192.776 93.488 192.56 93.65 192.38 93.854C192.212 94.058 192.08 94.292 191.984 94.556C191.888 94.82 191.822 95.09 191.786 95.366H195.836ZM205.688 93.548C205.508 93.488 205.256 93.428 204.932 93.368C204.62 93.296 204.254 93.26 203.834 93.26C203.594 93.26 203.336 93.284 203.06 93.332C202.796 93.38 202.61 93.422 202.502 93.458V101H200.324V92.036C200.744 91.88 201.266 91.736 201.89 91.604C202.526 91.46 203.228 91.388 203.996 91.388C204.14 91.388 204.308 91.4 204.5 91.424C204.692 91.436 204.884 91.46 205.076 91.496C205.268 91.52 205.454 91.556 205.634 91.604C205.814 91.64 205.958 91.676 206.066 91.712L205.688 93.548ZM210.312 101C209.712 99.764 209.094 98.348 208.458 96.752C207.834 95.144 207.264 93.422 206.748 91.586H209.07C209.202 92.114 209.352 92.684 209.52 93.296C209.7 93.896 209.886 94.502 210.078 95.114C210.282 95.714 210.486 96.302 210.69 96.878C210.906 97.442 211.104 97.952 211.284 98.408C211.464 97.952 211.656 97.442 211.86 96.878C212.064 96.302 212.262 95.714 212.454 95.114C212.658 94.502 212.85 93.896 213.03 93.296C213.21 92.684 213.366 92.114 213.498 91.586H215.748C215.232 93.422 214.656 95.144 214.02 96.752C213.396 98.348 212.784 99.764 212.184 101H210.312ZM219.57 101H217.392V91.586H219.57V101ZM219.804 88.832C219.804 89.24 219.672 89.564 219.408 89.804C219.144 90.044 218.832 90.164 218.472 90.164C218.1 90.164 217.782 90.044 217.518 89.804C217.254 89.564 217.122 89.24 217.122 88.832C217.122 88.412 217.254 88.082 217.518 87.842C217.782 87.602 218.1 87.482 218.472 87.482C218.832 87.482 219.144 87.602 219.408 87.842C219.672 88.082 219.804 88.412 219.804 88.832ZM221.827 96.302C221.827 95.606 221.935 94.958 222.151 94.358C222.367 93.746 222.673 93.218 223.069 92.774C223.477 92.33 223.969 91.982 224.545 91.73C225.121 91.478 225.769 91.352 226.489 91.352C227.377 91.352 228.217 91.514 229.009 91.838L228.541 93.62C228.289 93.512 228.001 93.422 227.677 93.35C227.365 93.278 227.029 93.242 226.669 93.242C225.817 93.242 225.169 93.512 224.725 94.052C224.281 94.58 224.059 95.33 224.059 96.302C224.059 97.238 224.269 97.982 224.689 98.534C225.109 99.074 225.817 99.344 226.813 99.344C227.185 99.344 227.551 99.308 227.911 99.236C228.271 99.164 228.583 99.074 228.847 98.966L229.153 100.766C228.913 100.886 228.547 100.994 228.055 101.09C227.575 101.186 227.077 101.234 226.561 101.234C225.757 101.234 225.055 101.114 224.455 100.874C223.867 100.622 223.375 100.28 222.979 99.848C222.595 99.404 222.307 98.882 222.115 98.282C221.923 97.67 221.827 97.01 221.827 96.302ZM230.317 96.338C230.317 95.51 230.437 94.784 230.677 94.16C230.929 93.536 231.259 93.02 231.667 92.612C232.075 92.192 232.543 91.88 233.071 91.676C233.599 91.46 234.139 91.352 234.691 91.352C235.987 91.352 236.995 91.754 237.715 92.558C238.447 93.362 238.813 94.562 238.813 96.158C238.813 96.278 238.807 96.416 238.795 96.572C238.795 96.716 238.789 96.848 238.777 96.968H232.567C232.627 97.724 232.891 98.312 233.359 98.732C233.839 99.14 234.529 99.344 235.429 99.344C235.957 99.344 236.437 99.296 236.869 99.2C237.313 99.104 237.661 99.002 237.913 98.894L238.201 100.676C238.081 100.736 237.913 100.802 237.697 100.874C237.493 100.934 237.253 100.988 236.977 101.036C236.713 101.096 236.425 101.144 236.113 101.18C235.801 101.216 235.483 101.234 235.159 101.234C234.331 101.234 233.611 101.114 232.999 100.874C232.387 100.622 231.883 100.28 231.487 99.848C231.091 99.404 230.797 98.888 230.605 98.3C230.413 97.7 230.317 97.046 230.317 96.338ZM236.635 95.366C236.635 95.066 236.593 94.784 236.509 94.52C236.425 94.244 236.299 94.01 236.131 93.818C235.975 93.614 235.777 93.458 235.537 93.35C235.309 93.23 235.033 93.17 234.709 93.17C234.373 93.17 234.079 93.236 233.827 93.368C233.575 93.488 233.359 93.65 233.179 93.854C233.011 94.058 232.879 94.292 232.783 94.556C232.687 94.82 232.621 95.09 232.585 95.366H236.635ZM243.48 99.434C244.056 99.434 244.476 99.368 244.74 99.236C245.004 99.092 245.136 98.852 245.136 98.516C245.136 98.204 244.992 97.946 244.704 97.742C244.428 97.538 243.966 97.316 243.318 97.076C242.922 96.932 242.556 96.782 242.22 96.626C241.896 96.458 241.614 96.266 241.374 96.05C241.134 95.834 240.942 95.576 240.798 95.276C240.666 94.964 240.6 94.586 240.6 94.142C240.6 93.278 240.918 92.6 241.554 92.108C242.19 91.604 243.054 91.352 244.146 91.352C244.698 91.352 245.226 91.406 245.73 91.514C246.234 91.61 246.612 91.706 246.864 91.802L246.468 93.566C246.228 93.458 245.922 93.362 245.55 93.278C245.178 93.182 244.746 93.134 244.254 93.134C243.81 93.134 243.45 93.212 243.174 93.368C242.898 93.512 242.76 93.74 242.76 94.052C242.76 94.208 242.784 94.346 242.832 94.466C242.892 94.586 242.988 94.7 243.12 94.808C243.252 94.904 243.426 95.006 243.642 95.114C243.858 95.21 244.122 95.312 244.434 95.42C244.95 95.612 245.388 95.804 245.748 95.996C246.108 96.176 246.402 96.386 246.63 96.626C246.87 96.854 247.044 97.118 247.152 97.418C247.26 97.718 247.314 98.078 247.314 98.498C247.314 99.398 246.978 100.082 246.306 100.55C245.646 101.006 244.698 101.234 243.462 101.234C242.634 101.234 241.968 101.162 241.464 101.018C240.96 100.886 240.606 100.778 240.402 100.694L240.78 98.876C241.104 99.008 241.488 99.134 241.932 99.254C242.388 99.374 242.904 99.434 243.48 99.434Z" fill="white"/>
<g clip-path="url(#clip1_2559_311)">
<mask id="mask0_2559_311" style="mask-type:alpha" maskUnits="userSpaceOnUse" x="0" y="0" width="468" height="130">
<rect width="468" height="130" fill="url(#paint0_linear_2559_311)"/>
</mask>
<g mask="url(#mask0_2559_311)">
<rect x="288" y="73" width="20" height="20" stroke="#0C0C0C"/>
<rect x="368" y="73" width="20" height="20" fill="#8B49F7" fill-opacity="0.3" stroke="#0C0C0C"/>
<rect x="128" y="13" width="20" height="20" fill="#8B49F7" fill-opacity="0.3" stroke="#0C0C0C"/>
<rect x="208" y="73" width="20" height="20" stroke="#0C0C0C"/>
<rect x="128" y="73" width="20" height="20" fill="#8B49F7" fill-opacity="0.3" stroke="#0C0C0C"/>
<rect x="448" y="13" width="20" height="20" fill="#8B49F7" fill-opacity="0.3" stroke="#0C0C0C"/>
<rect x="308" y="13" width="20" height="20" stroke="#0C0C0C"/>
<rect x="308" y="73" width="20" height="20" stroke="#0C0C0C"/>
<rect x="388" y="13" width="20" height="20" fill="#8B49F7" fill-opacity="0.3" stroke="#0C0C0C"/>
<rect x="388" y="73" width="20" height="20" fill="#8B49F7" fill-opacity="0.3" stroke="#0C0C0C"/>
<rect x="228" y="13" width="20" height="20" fill="#8B49F7" fill-opacity="0.3" stroke="#0C0C0C"/>
<rect x="228" y="73" width="20" height="20" fill="#8B49F7" fill-opacity="0.3" stroke="#0C0C0C"/>
<rect x="468" y="13" width="20" height="20" fill="#8B49F7" fill-opacity="0.3" stroke="#0C0C0C"/>
<rect x="468" y="73" width="20" height="20" fill="#8B49F7" fill-opacity="0.3" stroke="#0C0C0C"/>
<rect x="308" y="33" width="20" height="20" fill="#8B49F7" fill-opacity="0.3" stroke="#0C0C0C"/>
<rect x="308" y="93" width="20" height="20" fill="#8B49F7" fill-opacity="0.3" stroke="#0C0C0C"/>
<rect x="388" y="33" width="20" height="20" stroke="#0C0C0C"/>
<rect x="388" y="113" width="20" height="20" stroke="#0C0C0C"/>
<rect x="228" y="33" width="20" height="20" stroke="#0C0C0C"/>
<rect x="148" y="33" width="20" height="20" stroke="#0C0C0C"/>
<rect x="228" y="93" width="20" height="20" stroke="#0C0C0C"/>
<rect x="148" y="93" width="20" height="20" fill="#8B49F7" fill-opacity="0.3" stroke="#0C0C0C"/>
<rect x="468" y="33" width="20" height="20" fill="#8B49F7" fill-opacity="0.3" stroke="#0C0C0C"/>
<rect x="468" y="93" width="20" height="20" fill="#8B49F7" fill-opacity="0.3" stroke="#0C0C0C"/>
<rect x="288" y="33" width="20" height="20" stroke="#0C0C0C"/>
<rect x="368" y="33" width="20" height="20" fill="#8B49F7" fill-opacity="0.3" stroke="#0C0C0C"/>
<rect x="368" y="93" width="20" height="20" stroke="#0C0C0C"/>
<rect x="368" y="113" width="20" height="20" fill="#8B49F7" fill-opacity="0.3" stroke="#0C0C0C"/>
<rect x="208" y="33" width="20" height="20" fill="#8B49F7" fill-opacity="0.3" stroke="#0C0C0C"/>
<rect x="128" y="33" width="20" height="20" fill="#8B49F7" fill-opacity="0.3" stroke="#0C0C0C"/>
<rect x="208" y="93" width="20" height="20" stroke="#0C0C0C"/>
<rect x="128" y="93" width="20" height="20" fill="#8B49F7" fill-opacity="0.3" stroke="#0C0C0C"/>
<rect x="128" y="113" width="20" height="20" fill="#8B49F7" fill-opacity="0.3" stroke="#0C0C0C"/>
<rect x="448" y="93" width="20" height="20" fill="#8B49F7" fill-opacity="0.3" stroke="#0C0C0C"/>
<rect x="448" y="113" width="20" height="20" fill="#8B49F7" fill-opacity="0.3" stroke="#0C0C0C"/>
<rect x="328" y="93" width="20" height="20" stroke="#0C0C0C"/>
<rect x="408" y="33" width="20" height="20" fill="#8B49F7" fill-opacity="0.3" stroke="#0C0C0C"/>
<rect x="408" y="113" width="20" height="20" stroke="#0C0C0C"/>
<rect x="248" y="93" width="20" height="20" fill="#8B49F7" fill-opacity="0.3" stroke="#0C0C0C"/>
<rect x="248" y="113" width="20" height="20" fill="#8B49F7" fill-opacity="0.3" stroke="#0C0C0C"/>
<rect x="328" y="73" width="20" height="20" fill="#8B49F7" fill-opacity="0.3" stroke="#0C0C0C"/>
<rect x="408" y="13" width="20" height="20" stroke="#0C0C0C"/>
<rect x="248" y="73" width="20" height="20" stroke="#0C0C0C"/>
<rect x="348" y="13" width="20" height="20" stroke="#0C0C0C"/>
<rect x="428" y="73" width="20" height="20" fill="#8B49F7" fill-opacity="0.3" stroke="#0C0C0C"/>
<rect x="268" y="13" width="20" height="20" stroke="#0C0C0C"/>
<rect x="188" y="73" width="20" height="20" fill="#8B49F7" fill-opacity="0.3" stroke="#0C0C0C"/>
<rect x="348" y="33" width="20" height="20" fill="#8B49F7" fill-opacity="0.3" stroke="#0C0C0C"/>
<rect x="348" y="113" width="20" height="20" stroke="#0C0C0C"/>
<rect x="428" y="33" width="20" height="20" fill="#8B49F7" fill-opacity="0.3" stroke="#0C0C0C"/>
<rect x="428" y="93" width="20" height="20" stroke="#0C0C0C"/>
<rect x="428" y="113" width="20" height="20" fill="#8B49F7" fill-opacity="0.3" stroke="#0C0C0C"/>
<rect x="268" y="33" width="20" height="20" stroke="#0C0C0C"/>
<rect x="188" y="33" width="20" height="20" fill="#8B49F7" fill-opacity="0.3" stroke="#0C0C0C"/>
<rect x="268" y="113" width="20" height="20" stroke="#0C0C0C"/>
<rect x="348" y="-7" width="20" height="20" fill="#8B49F7" fill-opacity="0.3" stroke="#0C0C0C"/>
<rect x="348" y="53" width="20" height="20" fill="#8B49F7" fill-opacity="0.3" stroke="#0C0C0C"/>
<rect x="428" y="53" width="20" height="20" stroke="#0C0C0C"/>
<rect x="268" y="-7" width="20" height="20" fill="#8B49F7" fill-opacity="0.3" stroke="#0C0C0C"/>
<rect x="328" y="-7" width="20" height="20" fill="#8B49F7" fill-opacity="0.3" stroke="#0C0C0C"/>
<rect x="328" y="53" width="20" height="20" stroke="#0C0C0C"/>
<rect x="408" y="-7" width="20" height="20" fill="#8B49F7" fill-opacity="0.3" stroke="#0C0C0C"/>
<rect x="248" y="-7" width="20" height="20" stroke="#0C0C0C"/>
<rect x="248" y="53" width="20" height="20" fill="#8B49F7" fill-opacity="0.3" stroke="#0C0C0C"/>
<rect x="168" y="53" width="20" height="20" fill="#8B49F7" fill-opacity="0.3" stroke="#0C0C0C"/>
<rect x="228" y="-7" width="20" height="20" fill="#8B49F7" fill-opacity="0.3" stroke="#0C0C0C"/>
<rect x="148" y="-7" width="20" height="20" fill="#8B49F7" fill-opacity="0.3" stroke="#0C0C0C"/>
<rect x="148" y="53" width="20" height="20" fill="#8B49F7" fill-opacity="0.3" stroke="#0C0C0C"/>
<rect x="468" y="-7" width="20" height="20" fill="#8B49F7" fill-opacity="0.3" stroke="#0C0C0C"/>
<rect x="468" y="53" width="20" height="20" fill="#8B49F7" fill-opacity="0.3" stroke="#0C0C0C"/>
<rect x="208" y="-7" width="20" height="20" fill="#8B49F7" fill-opacity="0.3" stroke="#0C0C0C"/>
<rect x="128" y="-7" width="20" height="20" fill="#8B49F7" fill-opacity="0.3" stroke="#0C0C0C"/>
<rect x="128" y="53" width="20" height="20" fill="#8B49F7" fill-opacity="0.3" stroke="#0C0C0C"/>
<rect x="448" y="-7" width="20" height="20" stroke="#0C0C0C"/>
<rect x="248" y="33" width="20" height="20" fill="#8B49F7" fill-opacity="0.3" stroke="#0C0C0C"/>
<rect x="188" y="-7" width="20" height="20" fill="#8B49F7" fill-opacity="0.3" stroke="#0C0C0C"/>
<g filter="url(#filter0_f_2559_311)">
<rect x="368" y="53" width="20" height="20" fill="#8B49F7" fill-opacity="0.3"/>
<rect x="368" y="53" width="20" height="20" stroke="#0C0C0C"/>
</g>
</g>
</g>
</g>
<rect x="0.25" y="0.25" width="467.5" height="129.5" rx="15.75" stroke="#EEEEF4" stroke-width="0.5"/>
<defs>
<filter id="filter0_f_2559_311" x="366.5" y="51.5" width="23" height="23" filterUnits="userSpaceOnUse" color-interpolation-filters="sRGB">
<feFlood flood-opacity="0" result="BackgroundImageFix"/>
<feBlend mode="normal" in="SourceGraphic" in2="BackgroundImageFix" result="shape"/>
<feGaussianBlur stdDeviation="0.5" result="effect1_foregroundBlur_2559_311"/>
</filter>
<linearGradient id="paint0_linear_2559_311" x1="277.69" y1="-6.50001" x2="233.471" y2="151.824" gradientUnits="userSpaceOnUse">
<stop stop-color="#D9D9D9"/>
<stop offset="0.443879" stop-color="#D9D9D9" stop-opacity="0"/>
</linearGradient>
<clipPath id="clip0_2559_311">
<rect width="468" height="130" rx="16" fill="white"/>
</clipPath>
<clipPath id="clip1_2559_311">
<rect width="468" height="130" fill="white"/>
</clipPath>
</defs>
</svg>
