<svg width="468" height="130" viewBox="0 0 468 130" fill="none" xmlns="http://www.w3.org/2000/svg">
<g clip-path="url(#clip0_2559_406)">
<rect width="468" height="130" rx="16" fill="white"/>
<rect x="24" y="24" width="45" height="22" rx="11" fill="#5F00D9"/>
<path d="M36.8731 37.692V39H31.6171V30.684H33.1291V37.692H36.8731ZM43.5141 35.856C43.5141 36.352 43.4421 36.804 43.2981 37.212C43.1541 37.62 42.9501 37.968 42.6861 38.256C42.4221 38.544 42.1021 38.768 41.7261 38.928C41.3581 39.088 40.9501 39.168 40.5021 39.168C40.0541 39.168 39.6461 39.088 39.2781 38.928C38.9101 38.768 38.5941 38.544 38.3301 38.256C38.0661 37.968 37.8581 37.62 37.7061 37.212C37.5621 36.804 37.4901 36.352 37.4901 35.856C37.4901 35.36 37.5621 34.912 37.7061 34.512C37.8581 34.104 38.0661 33.756 38.3301 33.468C38.6021 33.18 38.9221 32.96 39.2901 32.808C39.6581 32.648 40.0621 32.568 40.5021 32.568C40.9421 32.568 41.3461 32.648 41.7141 32.808C42.0901 32.96 42.4101 33.18 42.6741 33.468C42.9381 33.756 43.1421 34.104 43.2861 34.512C43.4381 34.912 43.5141 35.36 43.5141 35.856ZM42.0261 35.856C42.0261 35.232 41.8901 34.74 41.6181 34.38C41.3541 34.012 40.9821 33.828 40.5021 33.828C40.0221 33.828 39.6461 34.012 39.3741 34.38C39.1101 34.74 38.9781 35.232 38.9781 35.856C38.9781 36.488 39.1101 36.988 39.3741 37.356C39.6461 37.724 40.0221 37.908 40.5021 37.908C40.9821 37.908 41.3541 37.724 41.6181 37.356C41.8901 36.988 42.0261 36.488 42.0261 35.856ZM47.2179 37.98C47.6659 37.98 48.0059 37.956 48.2379 37.908V36.3C48.1579 36.276 48.0419 36.252 47.8899 36.228C47.7379 36.204 47.5699 36.192 47.3859 36.192C47.2259 36.192 47.0619 36.204 46.8939 36.228C46.7339 36.252 46.5859 36.296 46.4499 36.36C46.3219 36.424 46.2179 36.516 46.1379 36.636C46.0579 36.748 46.0179 36.892 46.0179 37.068C46.0179 37.412 46.1259 37.652 46.3419 37.788C46.5579 37.916 46.8499 37.98 47.2179 37.98ZM47.0979 32.568C47.5779 32.568 47.9819 32.628 48.3099 32.748C48.6379 32.868 48.8979 33.036 49.0899 33.252C49.2899 33.468 49.4299 33.732 49.5099 34.044C49.5979 34.348 49.6419 34.684 49.6419 35.052V38.856C49.4179 38.904 49.0779 38.96 48.6219 39.024C48.1739 39.096 47.6659 39.132 47.0979 39.132C46.7219 39.132 46.3779 39.096 46.0659 39.024C45.7539 38.952 45.4859 38.836 45.2619 38.676C45.0459 38.516 44.8739 38.308 44.7459 38.052C44.6259 37.796 44.5659 37.48 44.5659 37.104C44.5659 36.744 44.6339 36.44 44.7699 36.192C44.9139 35.944 45.1059 35.744 45.3459 35.592C45.5859 35.432 45.8619 35.32 46.1739 35.256C46.4939 35.184 46.8259 35.148 47.1699 35.148C47.3299 35.148 47.4979 35.16 47.6739 35.184C47.8499 35.2 48.0379 35.232 48.2379 35.28V35.04C48.2379 34.872 48.2179 34.712 48.1779 34.56C48.1379 34.408 48.0659 34.276 47.9619 34.164C47.8659 34.044 47.7339 33.952 47.5659 33.888C47.4059 33.824 47.2019 33.792 46.9539 33.792C46.6179 33.792 46.3099 33.816 46.0299 33.864C45.7499 33.912 45.5219 33.968 45.3459 34.032L45.1659 32.856C45.3499 32.792 45.6179 32.728 45.9699 32.664C46.3219 32.6 46.6979 32.568 47.0979 32.568ZM51.4201 32.928C51.7001 32.848 52.0641 32.772 52.5121 32.7C52.9601 32.628 53.4561 32.592 54.0001 32.592C54.5121 32.592 54.9401 32.664 55.2841 32.808C55.6281 32.944 55.9001 33.14 56.1001 33.396C56.3081 33.644 56.4521 33.948 56.5321 34.308C56.6201 34.66 56.6641 35.048 56.6641 35.472V39H55.2121V35.7C55.2121 35.364 55.1881 35.08 55.1401 34.848C55.1001 34.608 55.0281 34.416 54.9241 34.272C54.8281 34.12 54.6921 34.012 54.5161 33.948C54.3481 33.876 54.1401 33.84 53.8921 33.84C53.7081 33.84 53.5161 33.852 53.3161 33.876C53.1161 33.9 52.9681 33.92 52.8721 33.936V39H51.4201V32.928ZM60.0116 37.956C60.3956 37.956 60.6756 37.912 60.8516 37.824C61.0276 37.728 61.1156 37.568 61.1156 37.344C61.1156 37.136 61.0196 36.964 60.8276 36.828C60.6436 36.692 60.3356 36.544 59.9036 36.384C59.6396 36.288 59.3956 36.188 59.1716 36.084C58.9556 35.972 58.7676 35.844 58.6076 35.7C58.4476 35.556 58.3196 35.384 58.2236 35.184C58.1356 34.976 58.0916 34.724 58.0916 34.428C58.0916 33.852 58.3036 33.4 58.7276 33.072C59.1516 32.736 59.7276 32.568 60.4556 32.568C60.8236 32.568 61.1756 32.604 61.5116 32.676C61.8476 32.74 62.0996 32.804 62.2676 32.868L62.0036 34.044C61.8436 33.972 61.6396 33.908 61.3916 33.852C61.1436 33.788 60.8556 33.756 60.5276 33.756C60.2316 33.756 59.9916 33.808 59.8076 33.912C59.6236 34.008 59.5316 34.16 59.5316 34.368C59.5316 34.472 59.5476 34.564 59.5796 34.644C59.6196 34.724 59.6836 34.8 59.7716 34.872C59.8596 34.936 59.9756 35.004 60.1196 35.076C60.2636 35.14 60.4396 35.208 60.6476 35.28C60.9916 35.408 61.2836 35.536 61.5236 35.664C61.7636 35.784 61.9596 35.924 62.1116 36.084C62.2716 36.236 62.3876 36.412 62.4596 36.612C62.5316 36.812 62.5676 37.052 62.5676 37.332C62.5676 37.932 62.3436 38.388 61.8956 38.7C61.4556 39.004 60.8236 39.156 59.9996 39.156C59.4476 39.156 59.0036 39.108 58.6676 39.012C58.3316 38.924 58.0956 38.852 57.9596 38.796L58.2116 37.584C58.4276 37.672 58.6836 37.756 58.9796 37.836C59.2836 37.916 59.6276 37.956 60.0116 37.956Z" fill="white"/>
<path d="M33.378 77.038V79H25.494V66.526H27.762V77.038H33.378ZM34.3035 74.338C34.3035 73.51 34.4235 72.784 34.6635 72.16C34.9155 71.536 35.2455 71.02 35.6535 70.612C36.0615 70.192 36.5295 69.88 37.0575 69.676C37.5855 69.46 38.1255 69.352 38.6775 69.352C39.9735 69.352 40.9815 69.754 41.7015 70.558C42.4335 71.362 42.7995 72.562 42.7995 74.158C42.7995 74.278 42.7935 74.416 42.7815 74.572C42.7815 74.716 42.7755 74.848 42.7635 74.968H36.5535C36.6135 75.724 36.8775 76.312 37.3455 76.732C37.8255 77.14 38.5155 77.344 39.4155 77.344C39.9435 77.344 40.4235 77.296 40.8555 77.2C41.2995 77.104 41.6475 77.002 41.8995 76.894L42.1875 78.676C42.0675 78.736 41.8995 78.802 41.6835 78.874C41.4795 78.934 41.2395 78.988 40.9635 79.036C40.6995 79.096 40.4115 79.144 40.0995 79.18C39.7875 79.216 39.4695 79.234 39.1455 79.234C38.3175 79.234 37.5975 79.114 36.9855 78.874C36.3735 78.622 35.8695 78.28 35.4735 77.848C35.0775 77.404 34.7835 76.888 34.5915 76.3C34.3995 75.7 34.3035 75.046 34.3035 74.338ZM40.6215 73.366C40.6215 73.066 40.5795 72.784 40.4955 72.52C40.4115 72.244 40.2855 72.01 40.1175 71.818C39.9615 71.614 39.7635 71.458 39.5235 71.35C39.2955 71.23 39.0195 71.17 38.6955 71.17C38.3595 71.17 38.0655 71.236 37.8135 71.368C37.5615 71.488 37.3455 71.65 37.1655 71.854C36.9975 72.058 36.8655 72.292 36.7695 72.556C36.6735 72.82 36.6075 73.09 36.5715 73.366H40.6215ZM48.4207 77.47C49.0927 77.47 49.6027 77.434 49.9507 77.362V74.95C49.8307 74.914 49.6567 74.878 49.4287 74.842C49.2007 74.806 48.9487 74.788 48.6727 74.788C48.4327 74.788 48.1867 74.806 47.9347 74.842C47.6947 74.878 47.4727 74.944 47.2687 75.04C47.0767 75.136 46.9207 75.274 46.8007 75.454C46.6807 75.622 46.6207 75.838 46.6207 76.102C46.6207 76.618 46.7827 76.978 47.1067 77.182C47.4307 77.374 47.8687 77.47 48.4207 77.47ZM48.2407 69.352C48.9607 69.352 49.5667 69.442 50.0587 69.622C50.5507 69.802 50.9407 70.054 51.2287 70.378C51.5287 70.702 51.7387 71.098 51.8587 71.566C51.9907 72.022 52.0567 72.526 52.0567 73.078V78.784C51.7207 78.856 51.2107 78.94 50.5267 79.036C49.8547 79.144 49.0927 79.198 48.2407 79.198C47.6767 79.198 47.1607 79.144 46.6927 79.036C46.2247 78.928 45.8227 78.754 45.4867 78.514C45.1627 78.274 44.9047 77.962 44.7127 77.578C44.5327 77.194 44.4427 76.72 44.4427 76.156C44.4427 75.616 44.5447 75.16 44.7487 74.788C44.9647 74.416 45.2527 74.116 45.6127 73.888C45.9727 73.648 46.3867 73.48 46.8547 73.384C47.3347 73.276 47.8327 73.222 48.3487 73.222C48.5887 73.222 48.8407 73.24 49.1047 73.276C49.3687 73.3 49.6507 73.348 49.9507 73.42V73.06C49.9507 72.808 49.9207 72.568 49.8607 72.34C49.8007 72.112 49.6927 71.914 49.5367 71.746C49.3927 71.566 49.1947 71.428 48.9427 71.332C48.7027 71.236 48.3967 71.188 48.0247 71.188C47.5207 71.188 47.0587 71.224 46.6387 71.296C46.2187 71.368 45.8767 71.452 45.6127 71.548L45.3427 69.784C45.6187 69.688 46.0207 69.592 46.5487 69.496C47.0767 69.4 47.6407 69.352 48.2407 69.352ZM60.0879 71.548C59.9079 71.488 59.6559 71.428 59.3319 71.368C59.0199 71.296 58.6539 71.26 58.2339 71.26C57.9939 71.26 57.7359 71.284 57.4599 71.332C57.1959 71.38 57.0099 71.422 56.9019 71.458V79H54.7239V70.036C55.1439 69.88 55.6659 69.736 56.2899 69.604C56.9259 69.46 57.6279 69.388 58.3959 69.388C58.5399 69.388 58.7079 69.4 58.8999 69.424C59.0919 69.436 59.2839 69.46 59.4759 69.496C59.6679 69.52 59.8539 69.556 60.0339 69.604C60.2139 69.64 60.3579 69.676 60.4659 69.712L60.0879 71.548ZM61.9837 69.892C62.4037 69.772 62.9497 69.658 63.6217 69.55C64.2937 69.442 65.0377 69.388 65.8537 69.388C66.6217 69.388 67.2637 69.496 67.7797 69.712C68.2957 69.916 68.7037 70.21 69.0037 70.594C69.3157 70.966 69.5317 71.422 69.6517 71.962C69.7837 72.49 69.8497 73.072 69.8497 73.708V79H67.6717V74.05C67.6717 73.546 67.6357 73.12 67.5637 72.772C67.5037 72.412 67.3957 72.124 67.2397 71.908C67.0957 71.68 66.8917 71.518 66.6277 71.422C66.3757 71.314 66.0637 71.26 65.6917 71.26C65.4157 71.26 65.1277 71.278 64.8277 71.314C64.5277 71.35 64.3057 71.38 64.1617 71.404V79H61.9837V69.892ZM82.0781 74.05C82.0781 73.066 81.9521 72.358 81.7001 71.926C81.4601 71.482 81.0041 71.26 80.3321 71.26C80.0921 71.26 79.8281 71.278 79.5401 71.314C79.2521 71.35 79.0361 71.38 78.8921 71.404V79H76.7141V69.892C77.1341 69.772 77.6801 69.658 78.3521 69.55C79.0361 69.442 79.7561 69.388 80.5121 69.388C81.1601 69.388 81.6881 69.472 82.0961 69.64C82.5161 69.808 82.8641 70.03 83.1401 70.306C83.2721 70.21 83.4401 70.108 83.6441 70C83.8481 69.892 84.0761 69.796 84.3281 69.712C84.5801 69.616 84.8441 69.538 85.1201 69.478C85.4081 69.418 85.6961 69.388 85.9841 69.388C86.7161 69.388 87.3161 69.496 87.7841 69.712C88.2641 69.916 88.6361 70.21 88.9001 70.594C89.1761 70.966 89.3621 71.422 89.4581 71.962C89.5661 72.49 89.6201 73.072 89.6201 73.708V79H87.4421V74.05C87.4421 73.066 87.3221 72.358 87.0821 71.926C86.8421 71.482 86.3801 71.26 85.6961 71.26C85.3481 71.26 85.0181 71.32 84.7061 71.44C84.3941 71.548 84.1601 71.656 84.0041 71.764C84.1001 72.064 84.1661 72.382 84.2021 72.718C84.2381 73.054 84.2561 73.414 84.2561 73.798V79H82.0781V74.05ZM100.802 74.284C100.802 75.028 100.694 75.706 100.478 76.318C100.262 76.93 99.9563 77.452 99.5603 77.884C99.1643 78.316 98.6843 78.652 98.1203 78.892C97.5683 79.132 96.9563 79.252 96.2843 79.252C95.6123 79.252 95.0003 79.132 94.4483 78.892C93.8963 78.652 93.4223 78.316 93.0263 77.884C92.6303 77.452 92.3183 76.93 92.0903 76.318C91.8743 75.706 91.7663 75.028 91.7663 74.284C91.7663 73.54 91.8743 72.868 92.0903 72.268C92.3183 71.656 92.6303 71.134 93.0263 70.702C93.4343 70.27 93.9143 69.94 94.4663 69.712C95.0183 69.472 95.6243 69.352 96.2843 69.352C96.9443 69.352 97.5503 69.472 98.1023 69.712C98.6663 69.94 99.1463 70.27 99.5423 70.702C99.9383 71.134 100.244 71.656 100.46 72.268C100.688 72.868 100.802 73.54 100.802 74.284ZM98.5703 74.284C98.5703 73.348 98.3663 72.61 97.9583 72.07C97.5623 71.518 97.0043 71.242 96.2843 71.242C95.5643 71.242 95.0003 71.518 94.5923 72.07C94.1963 72.61 93.9983 73.348 93.9983 74.284C93.9983 75.232 94.1963 75.982 94.5923 76.534C95.0003 77.086 95.5643 77.362 96.2843 77.362C97.0043 77.362 97.5623 77.086 97.9583 76.534C98.3663 75.982 98.5703 75.232 98.5703 74.284ZM108.41 71.548C108.23 71.488 107.978 71.428 107.654 71.368C107.342 71.296 106.976 71.26 106.556 71.26C106.316 71.26 106.058 71.284 105.782 71.332C105.518 71.38 105.332 71.422 105.224 71.458V79H103.046V70.036C103.466 69.88 103.988 69.736 104.612 69.604C105.248 69.46 105.95 69.388 106.718 69.388C106.862 69.388 107.03 69.4 107.222 69.424C107.414 69.436 107.606 69.46 107.798 69.496C107.99 69.52 108.176 69.556 108.356 69.604C108.536 69.64 108.68 69.676 108.788 69.712L108.41 71.548ZM109.784 74.338C109.784 73.51 109.904 72.784 110.144 72.16C110.396 71.536 110.726 71.02 111.134 70.612C111.542 70.192 112.01 69.88 112.538 69.676C113.066 69.46 113.606 69.352 114.158 69.352C115.454 69.352 116.462 69.754 117.182 70.558C117.914 71.362 118.28 72.562 118.28 74.158C118.28 74.278 118.274 74.416 118.262 74.572C118.262 74.716 118.256 74.848 118.244 74.968H112.034C112.094 75.724 112.358 76.312 112.826 76.732C113.306 77.14 113.996 77.344 114.896 77.344C115.424 77.344 115.904 77.296 116.336 77.2C116.78 77.104 117.128 77.002 117.38 76.894L117.668 78.676C117.548 78.736 117.38 78.802 117.164 78.874C116.96 78.934 116.72 78.988 116.444 79.036C116.18 79.096 115.892 79.144 115.58 79.18C115.268 79.216 114.95 79.234 114.626 79.234C113.798 79.234 113.078 79.114 112.466 78.874C111.854 78.622 111.35 78.28 110.954 77.848C110.558 77.404 110.264 76.888 110.072 76.3C109.88 75.7 109.784 75.046 109.784 74.338ZM116.102 73.366C116.102 73.066 116.06 72.784 115.976 72.52C115.892 72.244 115.766 72.01 115.598 71.818C115.442 71.614 115.244 71.458 115.004 71.35C114.776 71.23 114.5 71.17 114.176 71.17C113.84 71.17 113.546 71.236 113.294 71.368C113.042 71.488 112.826 71.65 112.646 71.854C112.478 72.058 112.346 72.292 112.25 72.556C112.154 72.82 112.088 73.09 112.052 73.366H116.102ZM128.102 77.47C128.774 77.47 129.284 77.434 129.632 77.362V74.95C129.512 74.914 129.338 74.878 129.11 74.842C128.882 74.806 128.63 74.788 128.354 74.788C128.114 74.788 127.868 74.806 127.616 74.842C127.376 74.878 127.154 74.944 126.95 75.04C126.758 75.136 126.602 75.274 126.482 75.454C126.362 75.622 126.302 75.838 126.302 76.102C126.302 76.618 126.464 76.978 126.788 77.182C127.112 77.374 127.55 77.47 128.102 77.47ZM127.922 69.352C128.642 69.352 129.248 69.442 129.74 69.622C130.232 69.802 130.622 70.054 130.91 70.378C131.21 70.702 131.42 71.098 131.54 71.566C131.672 72.022 131.738 72.526 131.738 73.078V78.784C131.402 78.856 130.892 78.94 130.208 79.036C129.536 79.144 128.774 79.198 127.922 79.198C127.358 79.198 126.842 79.144 126.374 79.036C125.906 78.928 125.504 78.754 125.168 78.514C124.844 78.274 124.586 77.962 124.394 77.578C124.214 77.194 124.124 76.72 124.124 76.156C124.124 75.616 124.226 75.16 124.43 74.788C124.646 74.416 124.934 74.116 125.294 73.888C125.654 73.648 126.068 73.48 126.536 73.384C127.016 73.276 127.514 73.222 128.03 73.222C128.27 73.222 128.522 73.24 128.786 73.276C129.05 73.3 129.332 73.348 129.632 73.42V73.06C129.632 72.808 129.602 72.568 129.542 72.34C129.482 72.112 129.374 71.914 129.218 71.746C129.074 71.566 128.876 71.428 128.624 71.332C128.384 71.236 128.078 71.188 127.706 71.188C127.202 71.188 126.74 71.224 126.32 71.296C125.9 71.368 125.558 71.452 125.294 71.548L125.024 69.784C125.3 69.688 125.702 69.592 126.23 69.496C126.758 69.4 127.322 69.352 127.922 69.352ZM140.652 74.266C140.652 73.342 140.466 72.61 140.094 72.07C139.734 71.53 139.158 71.26 138.366 71.26C138.006 71.26 137.664 71.314 137.34 71.422C137.028 71.53 136.776 71.65 136.584 71.782V77.2C136.74 77.236 136.938 77.272 137.178 77.308C137.43 77.332 137.73 77.344 138.078 77.344C138.882 77.344 139.512 77.074 139.968 76.534C140.424 75.982 140.652 75.226 140.652 74.266ZM142.884 74.302C142.884 75.058 142.77 75.742 142.542 76.354C142.326 76.954 142.008 77.47 141.588 77.902C141.18 78.334 140.682 78.664 140.094 78.892C139.506 79.12 138.84 79.234 138.096 79.234C137.376 79.234 136.686 79.18 136.026 79.072C135.378 78.964 134.838 78.844 134.406 78.712V65.392L136.584 65.032V69.91C136.836 69.778 137.142 69.658 137.502 69.55C137.874 69.442 138.282 69.388 138.726 69.388C139.386 69.388 139.974 69.508 140.49 69.748C141.018 69.976 141.456 70.306 141.804 70.738C142.152 71.17 142.416 71.692 142.596 72.304C142.788 72.904 142.884 73.57 142.884 74.302ZM153.642 74.284C153.642 75.028 153.534 75.706 153.318 76.318C153.102 76.93 152.796 77.452 152.4 77.884C152.004 78.316 151.524 78.652 150.96 78.892C150.408 79.132 149.796 79.252 149.124 79.252C148.452 79.252 147.84 79.132 147.288 78.892C146.736 78.652 146.262 78.316 145.866 77.884C145.47 77.452 145.158 76.93 144.93 76.318C144.714 75.706 144.606 75.028 144.606 74.284C144.606 73.54 144.714 72.868 144.93 72.268C145.158 71.656 145.47 71.134 145.866 70.702C146.274 70.27 146.754 69.94 147.306 69.712C147.858 69.472 148.464 69.352 149.124 69.352C149.784 69.352 150.39 69.472 150.942 69.712C151.506 69.94 151.986 70.27 152.382 70.702C152.778 71.134 153.084 71.656 153.3 72.268C153.528 72.868 153.642 73.54 153.642 74.284ZM151.41 74.284C151.41 73.348 151.206 72.61 150.798 72.07C150.402 71.518 149.844 71.242 149.124 71.242C148.404 71.242 147.84 71.518 147.432 72.07C147.036 72.61 146.838 73.348 146.838 74.284C146.838 75.232 147.036 75.982 147.432 76.534C147.84 77.086 148.404 77.362 149.124 77.362C149.844 77.362 150.402 77.086 150.798 76.534C151.206 75.982 151.41 75.232 151.41 74.284ZM163.608 78.712C163.188 78.82 162.642 78.928 161.97 79.036C161.298 79.156 160.56 79.216 159.756 79.216C159 79.216 158.364 79.108 157.848 78.892C157.344 78.676 156.936 78.376 156.624 77.992C156.324 77.608 156.108 77.152 155.976 76.624C155.844 76.084 155.778 75.496 155.778 74.86V69.586H157.956V74.518C157.956 75.526 158.1 76.246 158.388 76.678C158.688 77.11 159.204 77.326 159.936 77.326C160.2 77.326 160.476 77.314 160.764 77.29C161.064 77.266 161.286 77.236 161.43 77.2V69.586H163.608V78.712ZM166.272 67.102L168.45 66.742V69.586H171.798V71.404H168.45V75.238C168.45 75.994 168.57 76.534 168.81 76.858C169.05 77.182 169.458 77.344 170.034 77.344C170.43 77.344 170.778 77.302 171.078 77.218C171.39 77.134 171.636 77.056 171.816 76.984L172.176 78.712C171.924 78.82 171.594 78.928 171.186 79.036C170.778 79.156 170.298 79.216 169.746 79.216C169.074 79.216 168.51 79.126 168.054 78.946C167.61 78.766 167.256 78.508 166.992 78.172C166.728 77.824 166.542 77.41 166.434 76.93C166.326 76.438 166.272 75.88 166.272 75.256V67.102ZM186.097 77.038V79H178.213V66.526H180.481V77.038H186.097ZM196.058 74.284C196.058 75.028 195.95 75.706 195.734 76.318C195.518 76.93 195.212 77.452 194.816 77.884C194.42 78.316 193.94 78.652 193.376 78.892C192.824 79.132 192.212 79.252 191.54 79.252C190.868 79.252 190.256 79.132 189.704 78.892C189.152 78.652 188.678 78.316 188.282 77.884C187.886 77.452 187.574 76.93 187.346 76.318C187.13 75.706 187.022 75.028 187.022 74.284C187.022 73.54 187.13 72.868 187.346 72.268C187.574 71.656 187.886 71.134 188.282 70.702C188.69 70.27 189.17 69.94 189.722 69.712C190.274 69.472 190.88 69.352 191.54 69.352C192.2 69.352 192.806 69.472 193.358 69.712C193.922 69.94 194.402 70.27 194.798 70.702C195.194 71.134 195.5 71.656 195.716 72.268C195.944 72.868 196.058 73.54 196.058 74.284ZM193.826 74.284C193.826 73.348 193.622 72.61 193.214 72.07C192.818 71.518 192.26 71.242 191.54 71.242C190.82 71.242 190.256 71.518 189.848 72.07C189.452 72.61 189.254 73.348 189.254 74.284C189.254 75.232 189.452 75.982 189.848 76.534C190.256 77.086 190.82 77.362 191.54 77.362C192.26 77.362 192.818 77.086 193.214 76.534C193.622 75.982 193.826 75.232 193.826 74.284ZM201.614 77.47C202.286 77.47 202.796 77.434 203.144 77.362V74.95C203.024 74.914 202.85 74.878 202.622 74.842C202.394 74.806 202.142 74.788 201.866 74.788C201.626 74.788 201.38 74.806 201.128 74.842C200.888 74.878 200.666 74.944 200.462 75.04C200.27 75.136 200.114 75.274 199.994 75.454C199.874 75.622 199.814 75.838 199.814 76.102C199.814 76.618 199.976 76.978 200.3 77.182C200.624 77.374 201.062 77.47 201.614 77.47ZM201.434 69.352C202.154 69.352 202.76 69.442 203.252 69.622C203.744 69.802 204.134 70.054 204.422 70.378C204.722 70.702 204.932 71.098 205.052 71.566C205.184 72.022 205.25 72.526 205.25 73.078V78.784C204.914 78.856 204.404 78.94 203.72 79.036C203.048 79.144 202.286 79.198 201.434 79.198C200.87 79.198 200.354 79.144 199.886 79.036C199.418 78.928 199.016 78.754 198.68 78.514C198.356 78.274 198.098 77.962 197.906 77.578C197.726 77.194 197.636 76.72 197.636 76.156C197.636 75.616 197.738 75.16 197.942 74.788C198.158 74.416 198.446 74.116 198.806 73.888C199.166 73.648 199.58 73.48 200.048 73.384C200.528 73.276 201.026 73.222 201.542 73.222C201.782 73.222 202.034 73.24 202.298 73.276C202.562 73.3 202.844 73.348 203.144 73.42V73.06C203.144 72.808 203.114 72.568 203.054 72.34C202.994 72.112 202.886 71.914 202.73 71.746C202.586 71.566 202.388 71.428 202.136 71.332C201.896 71.236 201.59 71.188 201.218 71.188C200.714 71.188 200.252 71.224 199.832 71.296C199.412 71.368 199.07 71.452 198.806 71.548L198.536 69.784C198.812 69.688 199.214 69.592 199.742 69.496C200.27 69.4 200.834 69.352 201.434 69.352ZM207.917 69.892C208.337 69.772 208.883 69.658 209.555 69.55C210.227 69.442 210.971 69.388 211.787 69.388C212.555 69.388 213.197 69.496 213.713 69.712C214.229 69.916 214.637 70.21 214.937 70.594C215.249 70.966 215.465 71.422 215.585 71.962C215.717 72.49 215.783 73.072 215.783 73.708V79H213.605V74.05C213.605 73.546 213.569 73.12 213.497 72.772C213.437 72.412 213.329 72.124 213.173 71.908C213.029 71.68 212.825 71.518 212.561 71.422C212.309 71.314 211.997 71.26 211.625 71.26C211.349 71.26 211.061 71.278 210.761 71.314C210.461 71.35 210.239 71.38 210.095 71.404V79H207.917V69.892ZM220.805 77.434C221.381 77.434 221.801 77.368 222.065 77.236C222.329 77.092 222.461 76.852 222.461 76.516C222.461 76.204 222.317 75.946 222.029 75.742C221.753 75.538 221.291 75.316 220.643 75.076C220.247 74.932 219.881 74.782 219.545 74.626C219.221 74.458 218.939 74.266 218.699 74.05C218.459 73.834 218.267 73.576 218.123 73.276C217.991 72.964 217.925 72.586 217.925 72.142C217.925 71.278 218.243 70.6 218.879 70.108C219.515 69.604 220.379 69.352 221.471 69.352C222.023 69.352 222.551 69.406 223.055 69.514C223.559 69.61 223.937 69.706 224.189 69.802L223.793 71.566C223.553 71.458 223.247 71.362 222.875 71.278C222.503 71.182 222.071 71.134 221.579 71.134C221.135 71.134 220.775 71.212 220.499 71.368C220.223 71.512 220.085 71.74 220.085 72.052C220.085 72.208 220.109 72.346 220.157 72.466C220.217 72.586 220.313 72.7 220.445 72.808C220.577 72.904 220.751 73.006 220.967 73.114C221.183 73.21 221.447 73.312 221.759 73.42C222.275 73.612 222.713 73.804 223.073 73.996C223.433 74.176 223.727 74.386 223.955 74.626C224.195 74.854 224.369 75.118 224.477 75.418C224.585 75.718 224.639 76.078 224.639 76.498C224.639 77.398 224.303 78.082 223.631 78.55C222.971 79.006 222.023 79.234 220.787 79.234C219.959 79.234 219.293 79.162 218.789 79.018C218.285 78.886 217.931 78.778 217.727 78.694L218.105 76.876C218.429 77.008 218.813 77.134 219.257 77.254C219.713 77.374 220.229 77.434 220.805 77.434ZM229.488 72.934H238.488V74.77H229.488V72.934ZM251.635 79C251.323 78.52 250.963 78.016 250.555 77.488C250.147 76.96 249.715 76.45 249.259 75.958C248.815 75.466 248.353 74.998 247.873 74.554C247.393 74.11 246.919 73.726 246.451 73.402V79H244.183V66.526H246.451V71.674C246.847 71.278 247.261 70.858 247.693 70.414C248.125 69.958 248.551 69.502 248.971 69.046C249.403 68.578 249.811 68.128 250.195 67.696C250.579 67.264 250.927 66.874 251.239 66.526H253.957C253.561 66.982 253.141 67.456 252.697 67.948C252.253 68.44 251.797 68.938 251.329 69.442C250.861 69.934 250.387 70.426 249.907 70.918C249.439 71.41 248.977 71.878 248.521 72.322C249.025 72.706 249.535 73.156 250.051 73.672C250.579 74.176 251.095 74.722 251.599 75.31C252.103 75.886 252.583 76.492 253.039 77.128C253.507 77.752 253.933 78.376 254.317 79H251.635ZM254.856 74.338C254.856 73.51 254.976 72.784 255.216 72.16C255.468 71.536 255.798 71.02 256.206 70.612C256.614 70.192 257.082 69.88 257.61 69.676C258.138 69.46 258.678 69.352 259.23 69.352C260.526 69.352 261.534 69.754 262.254 70.558C262.986 71.362 263.352 72.562 263.352 74.158C263.352 74.278 263.346 74.416 263.334 74.572C263.334 74.716 263.328 74.848 263.316 74.968H257.106C257.166 75.724 257.43 76.312 257.898 76.732C258.378 77.14 259.068 77.344 259.968 77.344C260.496 77.344 260.976 77.296 261.408 77.2C261.852 77.104 262.2 77.002 262.452 76.894L262.74 78.676C262.62 78.736 262.452 78.802 262.236 78.874C262.032 78.934 261.792 78.988 261.516 79.036C261.252 79.096 260.964 79.144 260.652 79.18C260.34 79.216 260.022 79.234 259.698 79.234C258.87 79.234 258.15 79.114 257.538 78.874C256.926 78.622 256.422 78.28 256.026 77.848C255.63 77.404 255.336 76.888 255.144 76.3C254.952 75.7 254.856 75.046 254.856 74.338ZM261.174 73.366C261.174 73.066 261.132 72.784 261.048 72.52C260.964 72.244 260.838 72.01 260.67 71.818C260.514 71.614 260.316 71.458 260.076 71.35C259.848 71.23 259.572 71.17 259.248 71.17C258.912 71.17 258.618 71.236 258.366 71.368C258.114 71.488 257.898 71.65 257.718 71.854C257.55 72.058 257.418 72.292 257.322 72.556C257.226 72.82 257.16 73.09 257.124 73.366H261.174ZM265.139 74.338C265.139 73.51 265.259 72.784 265.499 72.16C265.751 71.536 266.081 71.02 266.489 70.612C266.897 70.192 267.365 69.88 267.893 69.676C268.421 69.46 268.961 69.352 269.513 69.352C270.809 69.352 271.817 69.754 272.537 70.558C273.269 71.362 273.635 72.562 273.635 74.158C273.635 74.278 273.629 74.416 273.617 74.572C273.617 74.716 273.611 74.848 273.599 74.968H267.389C267.449 75.724 267.713 76.312 268.181 76.732C268.661 77.14 269.351 77.344 270.251 77.344C270.779 77.344 271.259 77.296 271.691 77.2C272.135 77.104 272.483 77.002 272.735 76.894L273.023 78.676C272.903 78.736 272.735 78.802 272.519 78.874C272.315 78.934 272.075 78.988 271.799 79.036C271.535 79.096 271.247 79.144 270.935 79.18C270.623 79.216 270.305 79.234 269.981 79.234C269.153 79.234 268.433 79.114 267.821 78.874C267.209 78.622 266.705 78.28 266.309 77.848C265.913 77.404 265.619 76.888 265.427 76.3C265.235 75.7 265.139 75.046 265.139 74.338ZM271.457 73.366C271.457 73.066 271.415 72.784 271.331 72.52C271.247 72.244 271.121 72.01 270.953 71.818C270.797 71.614 270.599 71.458 270.359 71.35C270.131 71.23 269.855 71.17 269.531 71.17C269.195 71.17 268.901 71.236 268.649 71.368C268.397 71.488 268.181 71.65 268.001 71.854C267.833 72.058 267.701 72.292 267.605 72.556C267.509 72.82 267.443 73.09 267.407 73.366H271.457ZM282.191 74.338C282.191 73.366 281.969 72.61 281.525 72.07C281.093 71.53 280.391 71.26 279.419 71.26C279.215 71.26 278.999 71.272 278.771 71.296C278.555 71.308 278.339 71.344 278.123 71.404V76.786C278.315 76.918 278.567 77.044 278.879 77.164C279.203 77.272 279.545 77.326 279.905 77.326C280.697 77.326 281.273 77.056 281.633 76.516C282.005 75.976 282.191 75.25 282.191 74.338ZM284.423 74.302C284.423 75.022 284.327 75.682 284.135 76.282C283.955 76.882 283.691 77.398 283.343 77.83C282.995 78.262 282.557 78.598 282.029 78.838C281.513 79.078 280.925 79.198 280.265 79.198C279.821 79.198 279.413 79.144 279.041 79.036C278.669 78.928 278.363 78.808 278.123 78.676V82.33H275.945V69.892C276.389 69.772 276.935 69.658 277.583 69.55C278.231 69.442 278.915 69.388 279.635 69.388C280.379 69.388 281.045 69.502 281.633 69.73C282.221 69.958 282.719 70.288 283.127 70.72C283.547 71.14 283.865 71.656 284.081 72.268C284.309 72.868 284.423 73.546 284.423 74.302ZM298.554 69.586C297.582 73.162 296.454 76.402 295.17 79.306C294.93 79.846 294.684 80.308 294.432 80.692C294.18 81.076 293.898 81.394 293.586 81.646C293.274 81.898 292.926 82.078 292.542 82.186C292.158 82.306 291.714 82.366 291.21 82.366C290.874 82.366 290.538 82.33 290.202 82.258C289.878 82.186 289.632 82.108 289.464 82.024L289.86 80.278C290.292 80.446 290.718 80.53 291.138 80.53C291.702 80.53 292.14 80.392 292.452 80.116C292.776 79.852 293.058 79.438 293.298 78.874C292.614 77.554 291.954 76.114 291.318 74.554C290.694 72.994 290.136 71.338 289.644 69.586H291.966C292.086 70.09 292.23 70.636 292.398 71.224C292.578 71.812 292.77 72.412 292.974 73.024C293.178 73.624 293.394 74.224 293.622 74.824C293.85 75.424 294.078 75.982 294.306 76.498C294.69 75.43 295.05 74.296 295.386 73.096C295.722 71.884 296.028 70.714 296.304 69.586H298.554ZM308.716 74.284C308.716 75.028 308.608 75.706 308.392 76.318C308.176 76.93 307.87 77.452 307.474 77.884C307.078 78.316 306.598 78.652 306.034 78.892C305.482 79.132 304.87 79.252 304.198 79.252C303.526 79.252 302.914 79.132 302.362 78.892C301.81 78.652 301.336 78.316 300.94 77.884C300.544 77.452 300.232 76.93 300.004 76.318C299.788 75.706 299.68 75.028 299.68 74.284C299.68 73.54 299.788 72.868 300.004 72.268C300.232 71.656 300.544 71.134 300.94 70.702C301.348 70.27 301.828 69.94 302.38 69.712C302.932 69.472 303.538 69.352 304.198 69.352C304.858 69.352 305.464 69.472 306.016 69.712C306.58 69.94 307.06 70.27 307.456 70.702C307.852 71.134 308.158 71.656 308.374 72.268C308.602 72.868 308.716 73.54 308.716 74.284ZM306.484 74.284C306.484 73.348 306.28 72.61 305.872 72.07C305.476 71.518 304.918 71.242 304.198 71.242C303.478 71.242 302.914 71.518 302.506 72.07C302.11 72.61 301.912 73.348 301.912 74.284C301.912 75.232 302.11 75.982 302.506 76.534C302.914 77.086 303.478 77.362 304.198 77.362C304.918 77.362 305.476 77.086 305.872 76.534C306.28 75.982 306.484 75.232 306.484 74.284ZM318.682 78.712C318.262 78.82 317.716 78.928 317.044 79.036C316.372 79.156 315.634 79.216 314.83 79.216C314.074 79.216 313.438 79.108 312.922 78.892C312.418 78.676 312.01 78.376 311.698 77.992C311.398 77.608 311.182 77.152 311.05 76.624C310.918 76.084 310.852 75.496 310.852 74.86V69.586H313.03V74.518C313.03 75.526 313.174 76.246 313.462 76.678C313.762 77.11 314.278 77.326 315.01 77.326C315.274 77.326 315.55 77.314 315.838 77.29C316.138 77.266 316.36 77.236 316.504 77.2V69.586H318.682V78.712ZM326.818 71.548C326.638 71.488 326.386 71.428 326.062 71.368C325.75 71.296 325.384 71.26 324.964 71.26C324.724 71.26 324.466 71.284 324.19 71.332C323.926 71.38 323.74 71.422 323.632 71.458V79H321.454V70.036C321.874 69.88 322.396 69.736 323.02 69.604C323.656 69.46 324.358 69.388 325.126 69.388C325.27 69.388 325.438 69.4 325.63 69.424C325.822 69.436 326.014 69.46 326.206 69.496C326.398 69.52 326.584 69.556 326.764 69.604C326.944 69.64 327.088 69.676 327.196 69.712L326.818 71.548ZM336.785 79.144C336.125 79.144 335.459 79.12 334.787 79.072C334.115 79.036 333.527 78.952 333.023 78.82V66.706C333.287 66.658 333.569 66.616 333.869 66.58C334.169 66.532 334.475 66.496 334.787 66.472C335.099 66.448 335.405 66.43 335.705 66.418C336.017 66.406 336.311 66.4 336.587 66.4C337.343 66.4 338.045 66.46 338.693 66.58C339.341 66.688 339.899 66.874 340.367 67.138C340.847 67.402 341.219 67.75 341.483 68.182C341.747 68.614 341.879 69.148 341.879 69.784C341.879 70.372 341.735 70.876 341.447 71.296C341.171 71.716 340.781 72.052 340.277 72.304C341.033 72.556 341.591 72.928 341.951 73.42C342.311 73.912 342.491 74.536 342.491 75.292C342.491 76.576 342.023 77.542 341.087 78.19C340.151 78.826 338.717 79.144 336.785 79.144ZM335.255 73.384V77.182C335.507 77.206 335.777 77.224 336.065 77.236C336.353 77.248 336.617 77.254 336.857 77.254C337.325 77.254 337.757 77.224 338.153 77.164C338.561 77.104 338.909 77.002 339.197 76.858C339.497 76.702 339.731 76.498 339.899 76.246C340.079 75.994 340.169 75.67 340.169 75.274C340.169 74.566 339.911 74.074 339.395 73.798C338.879 73.522 338.165 73.384 337.253 73.384H335.255ZM335.255 71.602H336.857C337.721 71.602 338.399 71.482 338.891 71.242C339.383 70.99 339.629 70.546 339.629 69.91C339.629 69.31 339.371 68.884 338.855 68.632C338.351 68.38 337.691 68.254 336.875 68.254C336.527 68.254 336.215 68.26 335.939 68.272C335.675 68.284 335.447 68.302 335.255 68.326V71.602ZM346.941 79H344.763V69.586H346.941V79ZM347.175 66.832C347.175 67.24 347.043 67.564 346.779 67.804C346.515 68.044 346.203 68.164 345.843 68.164C345.471 68.164 345.153 68.044 344.889 67.804C344.625 67.564 344.493 67.24 344.493 66.832C344.493 66.412 344.625 66.082 344.889 65.842C345.153 65.602 345.471 65.482 345.843 65.482C346.203 65.482 346.515 65.602 346.779 65.842C347.043 66.082 347.175 66.412 347.175 66.832ZM349.612 67.102L351.79 66.742V69.586H355.138V71.404H351.79V75.238C351.79 75.994 351.91 76.534 352.15 76.858C352.39 77.182 352.798 77.344 353.374 77.344C353.77 77.344 354.118 77.302 354.418 77.218C354.73 77.134 354.976 77.056 355.156 76.984L355.516 78.712C355.264 78.82 354.934 78.928 354.526 79.036C354.118 79.156 353.638 79.216 353.086 79.216C352.414 79.216 351.85 79.126 351.394 78.946C350.95 78.766 350.596 78.508 350.332 78.172C350.068 77.824 349.882 77.41 349.774 76.93C349.666 76.438 349.612 75.88 349.612 75.256V67.102ZM356.528 74.302C356.528 73.606 356.636 72.958 356.852 72.358C357.068 71.746 357.374 71.218 357.77 70.774C358.178 70.33 358.67 69.982 359.246 69.73C359.822 69.478 360.47 69.352 361.19 69.352C362.078 69.352 362.918 69.514 363.71 69.838L363.242 71.62C362.99 71.512 362.702 71.422 362.378 71.35C362.066 71.278 361.73 71.242 361.37 71.242C360.518 71.242 359.87 71.512 359.426 72.052C358.982 72.58 358.76 73.33 358.76 74.302C358.76 75.238 358.97 75.982 359.39 76.534C359.81 77.074 360.518 77.344 361.514 77.344C361.886 77.344 362.252 77.308 362.612 77.236C362.972 77.164 363.284 77.074 363.548 76.966L363.854 78.766C363.614 78.886 363.248 78.994 362.756 79.09C362.276 79.186 361.778 79.234 361.262 79.234C360.458 79.234 359.756 79.114 359.156 78.874C358.568 78.622 358.076 78.28 357.68 77.848C357.296 77.404 357.008 76.882 356.816 76.282C356.624 75.67 356.528 75.01 356.528 74.302ZM373.861 74.284C373.861 75.028 373.753 75.706 373.537 76.318C373.321 76.93 373.015 77.452 372.619 77.884C372.223 78.316 371.743 78.652 371.179 78.892C370.627 79.132 370.015 79.252 369.343 79.252C368.671 79.252 368.059 79.132 367.507 78.892C366.955 78.652 366.481 78.316 366.085 77.884C365.689 77.452 365.377 76.93 365.149 76.318C364.933 75.706 364.825 75.028 364.825 74.284C364.825 73.54 364.933 72.868 365.149 72.268C365.377 71.656 365.689 71.134 366.085 70.702C366.493 70.27 366.973 69.94 367.525 69.712C368.077 69.472 368.683 69.352 369.343 69.352C370.003 69.352 370.609 69.472 371.161 69.712C371.725 69.94 372.205 70.27 372.601 70.702C372.997 71.134 373.303 71.656 373.519 72.268C373.747 72.868 373.861 73.54 373.861 74.284ZM371.629 74.284C371.629 73.348 371.425 72.61 371.017 72.07C370.621 71.518 370.063 71.242 369.343 71.242C368.623 71.242 368.059 71.518 367.651 72.07C367.255 72.61 367.057 73.348 367.057 74.284C367.057 75.232 367.255 75.982 367.651 76.534C368.059 77.086 368.623 77.362 369.343 77.362C370.063 77.362 370.621 77.086 371.017 76.534C371.425 75.982 371.629 75.232 371.629 74.284ZM378.301 79H376.123V69.586H378.301V79ZM378.535 66.832C378.535 67.24 378.403 67.564 378.139 67.804C377.875 68.044 377.563 68.164 377.203 68.164C376.831 68.164 376.513 68.044 376.249 67.804C375.985 67.564 375.853 67.24 375.853 66.832C375.853 66.412 375.985 66.082 376.249 65.842C376.513 65.602 376.831 65.482 377.203 65.482C377.563 65.482 377.875 65.602 378.139 65.842C378.403 66.082 378.535 66.412 378.535 66.832ZM381.079 69.892C381.499 69.772 382.045 69.658 382.717 69.55C383.389 69.442 384.133 69.388 384.949 69.388C385.717 69.388 386.359 69.496 386.875 69.712C387.391 69.916 387.799 70.21 388.099 70.594C388.411 70.966 388.627 71.422 388.747 71.962C388.879 72.49 388.945 73.072 388.945 73.708V79H386.767V74.05C386.767 73.546 386.731 73.12 386.659 72.772C386.599 72.412 386.491 72.124 386.335 71.908C386.191 71.68 385.987 71.518 385.723 71.422C385.471 71.314 385.159 71.26 384.787 71.26C384.511 71.26 384.223 71.278 383.923 71.314C383.623 71.35 383.401 71.38 383.257 71.404V79H381.079V69.892ZM393.859 76.606C393.883 76.81 393.895 76.96 393.895 77.056C393.895 77.152 393.895 77.248 393.895 77.344C393.895 78.088 393.775 78.856 393.535 79.648C393.307 80.44 392.983 81.19 392.563 81.898L390.853 81.43C391.141 80.734 391.333 80.05 391.429 79.378C391.537 78.718 391.591 78.136 391.591 77.632C391.591 77.488 391.585 77.308 391.573 77.092C391.573 76.876 391.567 76.714 391.555 76.606H393.859ZM28.698 99.47C29.37 99.47 29.88 99.434 30.228 99.362V96.95C30.108 96.914 29.934 96.878 29.706 96.842C29.478 96.806 29.226 96.788 28.95 96.788C28.71 96.788 28.464 96.806 28.212 96.842C27.972 96.878 27.75 96.944 27.546 97.04C27.354 97.136 27.198 97.274 27.078 97.454C26.958 97.622 26.898 97.838 26.898 98.102C26.898 98.618 27.06 98.978 27.384 99.182C27.708 99.374 28.146 99.47 28.698 99.47ZM28.518 91.352C29.238 91.352 29.844 91.442 30.336 91.622C30.828 91.802 31.218 92.054 31.506 92.378C31.806 92.702 32.016 93.098 32.136 93.566C32.268 94.022 32.334 94.526 32.334 95.078V100.784C31.998 100.856 31.488 100.94 30.804 101.036C30.132 101.144 29.37 101.198 28.518 101.198C27.954 101.198 27.438 101.144 26.97 101.036C26.502 100.928 26.1 100.754 25.764 100.514C25.44 100.274 25.182 99.962 24.99 99.578C24.81 99.194 24.72 98.72 24.72 98.156C24.72 97.616 24.822 97.16 25.026 96.788C25.242 96.416 25.53 96.116 25.89 95.888C26.25 95.648 26.664 95.48 27.132 95.384C27.612 95.276 28.11 95.222 28.626 95.222C28.866 95.222 29.118 95.24 29.382 95.276C29.646 95.3 29.928 95.348 30.228 95.42V95.06C30.228 94.808 30.198 94.568 30.138 94.34C30.078 94.112 29.97 93.914 29.814 93.746C29.67 93.566 29.472 93.428 29.22 93.332C28.98 93.236 28.674 93.188 28.302 93.188C27.798 93.188 27.336 93.224 26.916 93.296C26.496 93.368 26.154 93.452 25.89 93.548L25.62 91.784C25.896 91.688 26.298 91.592 26.826 91.496C27.354 91.4 27.918 91.352 28.518 91.352ZM34.4792 96.302C34.4792 95.606 34.5872 94.958 34.8032 94.358C35.0192 93.746 35.3252 93.218 35.7212 92.774C36.1292 92.33 36.6212 91.982 37.1972 91.73C37.7732 91.478 38.4212 91.352 39.1412 91.352C40.0292 91.352 40.8692 91.514 41.6612 91.838L41.1932 93.62C40.9412 93.512 40.6532 93.422 40.3292 93.35C40.0172 93.278 39.6812 93.242 39.3212 93.242C38.4692 93.242 37.8212 93.512 37.3772 94.052C36.9332 94.58 36.7112 95.33 36.7112 96.302C36.7112 97.238 36.9212 97.982 37.3412 98.534C37.7612 99.074 38.4692 99.344 39.4652 99.344C39.8372 99.344 40.2032 99.308 40.5632 99.236C40.9232 99.164 41.2352 99.074 41.4992 98.966L41.8052 100.766C41.5652 100.886 41.1992 100.994 40.7072 101.09C40.2272 101.186 39.7292 101.234 39.2132 101.234C38.4092 101.234 37.7072 101.114 37.1072 100.874C36.5192 100.622 36.0272 100.28 35.6312 99.848C35.2472 99.404 34.9592 98.882 34.7672 98.282C34.5752 97.67 34.4792 97.01 34.4792 96.302ZM42.9695 96.302C42.9695 95.606 43.0775 94.958 43.2935 94.358C43.5095 93.746 43.8155 93.218 44.2115 92.774C44.6195 92.33 45.1115 91.982 45.6875 91.73C46.2635 91.478 46.9115 91.352 47.6315 91.352C48.5195 91.352 49.3595 91.514 50.1515 91.838L49.6835 93.62C49.4315 93.512 49.1435 93.422 48.8195 93.35C48.5075 93.278 48.1715 93.242 47.8115 93.242C46.9595 93.242 46.3115 93.512 45.8675 94.052C45.4235 94.58 45.2015 95.33 45.2015 96.302C45.2015 97.238 45.4115 97.982 45.8315 98.534C46.2515 99.074 46.9595 99.344 47.9555 99.344C48.3275 99.344 48.6935 99.308 49.0535 99.236C49.4135 99.164 49.7255 99.074 49.9895 98.966L50.2955 100.766C50.0555 100.886 49.6895 100.994 49.1975 101.09C48.7175 101.186 48.2195 101.234 47.7035 101.234C46.8995 101.234 46.1975 101.114 45.5975 100.874C45.0095 100.622 44.5175 100.28 44.1215 99.848C43.7375 99.404 43.4495 98.882 43.2575 98.282C43.0655 97.67 42.9695 97.01 42.9695 96.302ZM51.4597 96.338C51.4597 95.51 51.5797 94.784 51.8197 94.16C52.0717 93.536 52.4017 93.02 52.8097 92.612C53.2177 92.192 53.6857 91.88 54.2137 91.676C54.7417 91.46 55.2817 91.352 55.8337 91.352C57.1297 91.352 58.1377 91.754 58.8577 92.558C59.5897 93.362 59.9557 94.562 59.9557 96.158C59.9557 96.278 59.9497 96.416 59.9377 96.572C59.9377 96.716 59.9317 96.848 59.9197 96.968H53.7097C53.7697 97.724 54.0337 98.312 54.5017 98.732C54.9817 99.14 55.6717 99.344 56.5717 99.344C57.0997 99.344 57.5797 99.296 58.0117 99.2C58.4557 99.104 58.8037 99.002 59.0557 98.894L59.3437 100.676C59.2237 100.736 59.0557 100.802 58.8397 100.874C58.6357 100.934 58.3957 100.988 58.1197 101.036C57.8557 101.096 57.5677 101.144 57.2557 101.18C56.9437 101.216 56.6257 101.234 56.3017 101.234C55.4737 101.234 54.7537 101.114 54.1417 100.874C53.5297 100.622 53.0257 100.28 52.6297 99.848C52.2337 99.404 51.9397 98.888 51.7477 98.3C51.5557 97.7 51.4597 97.046 51.4597 96.338ZM57.7777 95.366C57.7777 95.066 57.7357 94.784 57.6517 94.52C57.5677 94.244 57.4417 94.01 57.2737 93.818C57.1177 93.614 56.9197 93.458 56.6797 93.35C56.4517 93.23 56.1757 93.17 55.8517 93.17C55.5157 93.17 55.2217 93.236 54.9697 93.368C54.7177 93.488 54.5017 93.65 54.3217 93.854C54.1537 94.058 54.0217 94.292 53.9257 94.556C53.8297 94.82 53.7637 95.09 53.7277 95.366H57.7777ZM64.6229 99.434C65.1989 99.434 65.6189 99.368 65.8829 99.236C66.1469 99.092 66.2789 98.852 66.2789 98.516C66.2789 98.204 66.1349 97.946 65.8469 97.742C65.5709 97.538 65.1089 97.316 64.4609 97.076C64.0649 96.932 63.6989 96.782 63.3629 96.626C63.0389 96.458 62.7569 96.266 62.5169 96.05C62.2769 95.834 62.0849 95.576 61.9409 95.276C61.8089 94.964 61.7429 94.586 61.7429 94.142C61.7429 93.278 62.0609 92.6 62.6969 92.108C63.3329 91.604 64.1969 91.352 65.2889 91.352C65.8409 91.352 66.3689 91.406 66.8729 91.514C67.3769 91.61 67.7549 91.706 68.0069 91.802L67.6109 93.566C67.3709 93.458 67.0649 93.362 66.6929 93.278C66.3209 93.182 65.8889 93.134 65.3969 93.134C64.9529 93.134 64.5929 93.212 64.3169 93.368C64.0409 93.512 63.9029 93.74 63.9029 94.052C63.9029 94.208 63.9269 94.346 63.9749 94.466C64.0349 94.586 64.1309 94.7 64.2629 94.808C64.3949 94.904 64.5689 95.006 64.7849 95.114C65.0009 95.21 65.2649 95.312 65.5769 95.42C66.0929 95.612 66.5309 95.804 66.8909 95.996C67.2509 96.176 67.5449 96.386 67.7729 96.626C68.0129 96.854 68.1869 97.118 68.2949 97.418C68.4029 97.718 68.4569 98.078 68.4569 98.498C68.4569 99.398 68.1209 100.082 67.4489 100.55C66.7889 101.006 65.8409 101.234 64.6049 101.234C63.7769 101.234 63.1109 101.162 62.6069 101.018C62.1029 100.886 61.7489 100.778 61.5449 100.694L61.9229 98.876C62.2469 99.008 62.6309 99.134 63.0749 99.254C63.5309 99.374 64.0469 99.434 64.6229 99.434ZM72.8495 99.434C73.4255 99.434 73.8455 99.368 74.1095 99.236C74.3735 99.092 74.5055 98.852 74.5055 98.516C74.5055 98.204 74.3615 97.946 74.0735 97.742C73.7975 97.538 73.3355 97.316 72.6875 97.076C72.2915 96.932 71.9255 96.782 71.5895 96.626C71.2655 96.458 70.9835 96.266 70.7435 96.05C70.5035 95.834 70.3115 95.576 70.1675 95.276C70.0355 94.964 69.9695 94.586 69.9695 94.142C69.9695 93.278 70.2875 92.6 70.9235 92.108C71.5595 91.604 72.4235 91.352 73.5155 91.352C74.0675 91.352 74.5955 91.406 75.0995 91.514C75.6035 91.61 75.9815 91.706 76.2335 91.802L75.8375 93.566C75.5975 93.458 75.2915 93.362 74.9195 93.278C74.5475 93.182 74.1155 93.134 73.6235 93.134C73.1795 93.134 72.8195 93.212 72.5435 93.368C72.2675 93.512 72.1295 93.74 72.1295 94.052C72.1295 94.208 72.1535 94.346 72.2015 94.466C72.2615 94.586 72.3575 94.7 72.4895 94.808C72.6215 94.904 72.7955 95.006 73.0115 95.114C73.2275 95.21 73.4915 95.312 73.8035 95.42C74.3195 95.612 74.7575 95.804 75.1175 95.996C75.4775 96.176 75.7715 96.386 75.9995 96.626C76.2395 96.854 76.4135 97.118 76.5215 97.418C76.6295 97.718 76.6835 98.078 76.6835 98.498C76.6835 99.398 76.3475 100.082 75.6755 100.55C75.0155 101.006 74.0675 101.234 72.8315 101.234C72.0035 101.234 71.3375 101.162 70.8335 101.018C70.3295 100.886 69.9755 100.778 69.7715 100.694L70.1495 98.876C70.4735 99.008 70.8575 99.134 71.3015 99.254C71.7575 99.374 72.2735 99.434 72.8495 99.434ZM85.1152 101H82.9372V91.586H85.1152V101ZM85.3492 88.832C85.3492 89.24 85.2172 89.564 84.9532 89.804C84.6892 90.044 84.3772 90.164 84.0172 90.164C83.6452 90.164 83.3272 90.044 83.0632 89.804C82.7992 89.564 82.6672 89.24 82.6672 88.832C82.6672 88.412 82.7992 88.082 83.0632 87.842C83.3272 87.602 83.6452 87.482 84.0172 87.482C84.3772 87.482 84.6892 87.602 84.9532 87.842C85.2172 88.082 85.3492 88.412 85.3492 88.832ZM87.7858 89.102L89.9638 88.742V91.586H93.3118V93.404H89.9638V97.238C89.9638 97.994 90.0838 98.534 90.3238 98.858C90.5638 99.182 90.9718 99.344 91.5478 99.344C91.9438 99.344 92.2918 99.302 92.5918 99.218C92.9038 99.134 93.1498 99.056 93.3298 98.984L93.6898 100.712C93.4378 100.82 93.1078 100.928 92.6998 101.036C92.2918 101.156 91.8118 101.216 91.2598 101.216C90.5878 101.216 90.0238 101.126 89.5678 100.946C89.1238 100.766 88.7698 100.508 88.5058 100.172C88.2418 99.824 88.0558 99.41 87.9478 98.93C87.8398 98.438 87.7858 97.88 87.7858 97.256V89.102ZM97.5053 87.356C97.5173 87.5 97.5233 87.65 97.5233 87.806C97.5353 87.962 97.5353 88.088 97.5233 88.184C97.4993 88.904 97.3553 89.6 97.0913 90.272C96.8393 90.932 96.5273 91.52 96.1553 92.036L94.5713 91.622C94.8113 91.094 94.9973 90.536 95.1293 89.948C95.2613 89.36 95.3273 88.796 95.3273 88.256C95.3273 88.172 95.3213 88.04 95.3093 87.86C95.3093 87.68 95.2973 87.512 95.2733 87.356H97.5053ZM102.31 99.434C102.886 99.434 103.306 99.368 103.57 99.236C103.834 99.092 103.966 98.852 103.966 98.516C103.966 98.204 103.822 97.946 103.534 97.742C103.258 97.538 102.796 97.316 102.148 97.076C101.752 96.932 101.386 96.782 101.05 96.626C100.726 96.458 100.444 96.266 100.204 96.05C99.9644 95.834 99.7724 95.576 99.6284 95.276C99.4964 94.964 99.4304 94.586 99.4304 94.142C99.4304 93.278 99.7484 92.6 100.384 92.108C101.02 91.604 101.884 91.352 102.976 91.352C103.528 91.352 104.056 91.406 104.56 91.514C105.064 91.61 105.442 91.706 105.694 91.802L105.298 93.566C105.058 93.458 104.752 93.362 104.38 93.278C104.008 93.182 103.576 93.134 103.084 93.134C102.64 93.134 102.28 93.212 102.004 93.368C101.728 93.512 101.59 93.74 101.59 94.052C101.59 94.208 101.614 94.346 101.662 94.466C101.722 94.586 101.818 94.7 101.95 94.808C102.082 94.904 102.256 95.006 102.472 95.114C102.688 95.21 102.952 95.312 103.264 95.42C103.78 95.612 104.218 95.804 104.578 95.996C104.938 96.176 105.232 96.386 105.46 96.626C105.7 96.854 105.874 97.118 105.982 97.418C106.09 97.718 106.144 98.078 106.144 98.498C106.144 99.398 105.808 100.082 105.136 100.55C104.476 101.006 103.528 101.234 102.292 101.234C101.464 101.234 100.798 101.162 100.294 101.018C99.7904 100.886 99.4364 100.778 99.2324 100.694L99.6104 98.876C99.9344 99.008 100.318 99.134 100.762 99.254C101.218 99.374 101.734 99.434 102.31 99.434ZM114.792 101C114.192 99.764 113.574 98.348 112.938 96.752C112.314 95.144 111.744 93.422 111.228 91.586H113.55C113.682 92.114 113.832 92.684 114 93.296C114.18 93.896 114.366 94.502 114.558 95.114C114.762 95.714 114.966 96.302 115.17 96.878C115.386 97.442 115.584 97.952 115.764 98.408C115.944 97.952 116.136 97.442 116.34 96.878C116.544 96.302 116.742 95.714 116.934 95.114C117.138 94.502 117.33 93.896 117.51 93.296C117.69 92.684 117.846 92.114 117.978 91.586H120.228C119.712 93.422 119.136 95.144 118.5 96.752C117.876 98.348 117.264 99.764 116.664 101H114.792ZM125.167 99.47C125.839 99.47 126.349 99.434 126.697 99.362V96.95C126.577 96.914 126.403 96.878 126.175 96.842C125.947 96.806 125.695 96.788 125.419 96.788C125.179 96.788 124.933 96.806 124.681 96.842C124.441 96.878 124.219 96.944 124.015 97.04C123.823 97.136 123.667 97.274 123.547 97.454C123.427 97.622 123.367 97.838 123.367 98.102C123.367 98.618 123.529 98.978 123.853 99.182C124.177 99.374 124.615 99.47 125.167 99.47ZM124.987 91.352C125.707 91.352 126.313 91.442 126.805 91.622C127.297 91.802 127.687 92.054 127.975 92.378C128.275 92.702 128.485 93.098 128.605 93.566C128.737 94.022 128.803 94.526 128.803 95.078V100.784C128.467 100.856 127.957 100.94 127.273 101.036C126.601 101.144 125.839 101.198 124.987 101.198C124.423 101.198 123.907 101.144 123.439 101.036C122.971 100.928 122.569 100.754 122.233 100.514C121.909 100.274 121.651 99.962 121.459 99.578C121.279 99.194 121.189 98.72 121.189 98.156C121.189 97.616 121.291 97.16 121.495 96.788C121.711 96.416 121.999 96.116 122.359 95.888C122.719 95.648 123.133 95.48 123.601 95.384C124.081 95.276 124.579 95.222 125.095 95.222C125.335 95.222 125.587 95.24 125.851 95.276C126.115 95.3 126.397 95.348 126.697 95.42V95.06C126.697 94.808 126.667 94.568 126.607 94.34C126.547 94.112 126.439 93.914 126.283 93.746C126.139 93.566 125.941 93.428 125.689 93.332C125.449 93.236 125.143 93.188 124.771 93.188C124.267 93.188 123.805 93.224 123.385 93.296C122.965 93.368 122.623 93.452 122.359 93.548L122.089 91.784C122.365 91.688 122.767 91.592 123.295 91.496C123.823 91.4 124.387 91.352 124.987 91.352ZM134.746 101.18C134.098 101.168 133.558 101.096 133.126 100.964C132.706 100.832 132.37 100.646 132.118 100.406C131.866 100.154 131.686 99.848 131.578 99.488C131.482 99.116 131.434 98.696 131.434 98.228V87.392L133.612 87.032V97.814C133.612 98.078 133.63 98.3 133.666 98.48C133.714 98.66 133.792 98.816 133.9 98.948C134.008 99.068 134.152 99.164 134.332 99.236C134.524 99.296 134.764 99.344 135.052 99.38L134.746 101.18ZM144.536 100.712C144.116 100.82 143.57 100.928 142.898 101.036C142.226 101.156 141.488 101.216 140.684 101.216C139.928 101.216 139.292 101.108 138.776 100.892C138.272 100.676 137.864 100.376 137.552 99.992C137.252 99.608 137.036 99.152 136.904 98.624C136.772 98.084 136.706 97.496 136.706 96.86V91.586H138.884V96.518C138.884 97.526 139.028 98.246 139.316 98.678C139.616 99.11 140.132 99.326 140.864 99.326C141.128 99.326 141.404 99.314 141.692 99.29C141.992 99.266 142.214 99.236 142.358 99.2V91.586H144.536V100.712ZM146.786 96.338C146.786 95.51 146.906 94.784 147.146 94.16C147.398 93.536 147.728 93.02 148.136 92.612C148.544 92.192 149.012 91.88 149.54 91.676C150.068 91.46 150.608 91.352 151.16 91.352C152.456 91.352 153.464 91.754 154.184 92.558C154.916 93.362 155.282 94.562 155.282 96.158C155.282 96.278 155.276 96.416 155.264 96.572C155.264 96.716 155.258 96.848 155.246 96.968H149.036C149.096 97.724 149.36 98.312 149.828 98.732C150.308 99.14 150.998 99.344 151.898 99.344C152.426 99.344 152.906 99.296 153.338 99.2C153.782 99.104 154.13 99.002 154.382 98.894L154.67 100.676C154.55 100.736 154.382 100.802 154.166 100.874C153.962 100.934 153.722 100.988 153.446 101.036C153.182 101.096 152.894 101.144 152.582 101.18C152.27 101.216 151.952 101.234 151.628 101.234C150.8 101.234 150.08 101.114 149.468 100.874C148.856 100.622 148.352 100.28 147.956 99.848C147.56 99.404 147.266 98.888 147.074 98.3C146.882 97.7 146.786 97.046 146.786 96.338ZM153.104 95.366C153.104 95.066 153.062 94.784 152.978 94.52C152.894 94.244 152.768 94.01 152.6 93.818C152.444 93.614 152.246 93.458 152.006 93.35C151.778 93.23 151.502 93.17 151.178 93.17C150.842 93.17 150.548 93.236 150.296 93.368C150.044 93.488 149.828 93.65 149.648 93.854C149.48 94.058 149.348 94.292 149.252 94.556C149.156 94.82 149.09 95.09 149.054 95.366H153.104ZM167.408 95.078C167.132 96.134 166.832 97.166 166.508 98.174C166.196 99.17 165.884 100.112 165.572 101H163.79C163.55 100.448 163.298 99.818 163.034 99.11C162.77 98.402 162.506 97.646 162.242 96.842C161.978 96.038 161.714 95.192 161.45 94.304C161.186 93.416 160.928 92.51 160.676 91.586H162.98C163.088 92.09 163.214 92.636 163.358 93.224C163.502 93.8 163.652 94.394 163.808 95.006C163.964 95.606 164.126 96.194 164.294 96.77C164.462 97.346 164.63 97.874 164.798 98.354C164.978 97.802 165.152 97.232 165.32 96.644C165.5 96.056 165.668 95.468 165.824 94.88C165.98 94.292 166.124 93.722 166.256 93.17C166.4 92.606 166.526 92.078 166.634 91.586H168.308C168.416 92.078 168.536 92.606 168.668 93.17C168.8 93.722 168.938 94.292 169.082 94.88C169.238 95.468 169.4 96.056 169.568 96.644C169.748 97.232 169.928 97.802 170.108 98.354C170.264 97.874 170.426 97.346 170.594 96.77C170.762 96.194 170.924 95.606 171.08 95.006C171.248 94.394 171.404 93.8 171.548 93.224C171.692 92.636 171.818 92.09 171.926 91.586H174.176C173.924 92.51 173.666 93.416 173.402 94.304C173.138 95.192 172.874 96.038 172.61 96.842C172.346 97.646 172.082 98.402 171.818 99.11C171.554 99.818 171.296 100.448 171.044 101H169.28C168.968 100.112 168.644 99.17 168.308 98.174C167.984 97.166 167.684 96.134 167.408 95.078ZM178.033 101H175.855V91.586H178.033V101ZM178.267 88.832C178.267 89.24 178.135 89.564 177.871 89.804C177.607 90.044 177.295 90.164 176.935 90.164C176.563 90.164 176.245 90.044 175.981 89.804C175.717 89.564 175.585 89.24 175.585 88.832C175.585 88.412 175.717 88.082 175.981 87.842C176.245 87.602 176.563 87.482 176.935 87.482C177.295 87.482 177.607 87.602 177.871 87.842C178.135 88.082 178.267 88.412 178.267 88.832ZM180.704 89.102L182.882 88.742V91.586H186.23V93.404H182.882V97.238C182.882 97.994 183.002 98.534 183.242 98.858C183.482 99.182 183.89 99.344 184.466 99.344C184.862 99.344 185.21 99.302 185.51 99.218C185.822 99.134 186.068 99.056 186.248 98.984L186.608 100.712C186.356 100.82 186.026 100.928 185.618 101.036C185.21 101.156 184.73 101.216 184.178 101.216C183.506 101.216 182.942 101.126 182.486 100.946C182.042 100.766 181.688 100.508 181.424 100.172C181.16 99.824 180.974 99.41 180.866 98.93C180.758 98.438 180.704 97.88 180.704 97.256V89.102ZM188.335 101V87.392L190.513 87.032V91.694C190.753 91.61 191.029 91.538 191.341 91.478C191.665 91.418 191.983 91.388 192.295 91.388C193.051 91.388 193.675 91.496 194.167 91.712C194.671 91.916 195.073 92.21 195.373 92.594C195.673 92.966 195.883 93.416 196.003 93.944C196.135 94.472 196.201 95.06 196.201 95.708V101H194.023V96.05C194.023 95.546 193.987 95.12 193.915 94.772C193.855 94.412 193.747 94.124 193.591 93.908C193.447 93.68 193.249 93.518 192.997 93.422C192.745 93.314 192.433 93.26 192.061 93.26C191.773 93.26 191.479 93.29 191.179 93.35C190.879 93.41 190.657 93.464 190.513 93.512V101H188.335ZM207.326 96.284C207.326 97.028 207.218 97.706 207.002 98.318C206.786 98.93 206.48 99.452 206.084 99.884C205.688 100.316 205.208 100.652 204.644 100.892C204.092 101.132 203.48 101.252 202.808 101.252C202.136 101.252 201.524 101.132 200.972 100.892C200.42 100.652 199.946 100.316 199.55 99.884C199.154 99.452 198.842 98.93 198.614 98.318C198.398 97.706 198.29 97.028 198.29 96.284C198.29 95.54 198.398 94.868 198.614 94.268C198.842 93.656 199.154 93.134 199.55 92.702C199.958 92.27 200.438 91.94 200.99 91.712C201.542 91.472 202.148 91.352 202.808 91.352C203.468 91.352 204.074 91.472 204.626 91.712C205.19 91.94 205.67 92.27 206.066 92.702C206.462 93.134 206.768 93.656 206.984 94.268C207.212 94.868 207.326 95.54 207.326 96.284ZM205.094 96.284C205.094 95.348 204.89 94.61 204.482 94.07C204.086 93.518 203.528 93.242 202.808 93.242C202.088 93.242 201.524 93.518 201.116 94.07C200.72 94.61 200.522 95.348 200.522 96.284C200.522 97.232 200.72 97.982 201.116 98.534C201.524 99.086 202.088 99.362 202.808 99.362C203.528 99.362 204.086 99.086 204.482 98.534C204.89 97.982 205.094 97.232 205.094 96.284ZM217.292 100.712C216.872 100.82 216.326 100.928 215.654 101.036C214.982 101.156 214.244 101.216 213.44 101.216C212.684 101.216 212.048 101.108 211.532 100.892C211.028 100.676 210.62 100.376 210.308 99.992C210.008 99.608 209.792 99.152 209.66 98.624C209.528 98.084 209.462 97.496 209.462 96.86V91.586H211.64V96.518C211.64 97.526 211.784 98.246 212.072 98.678C212.372 99.11 212.888 99.326 213.62 99.326C213.884 99.326 214.16 99.314 214.448 99.29C214.748 99.266 214.97 99.236 215.114 99.2V91.586H217.292V100.712ZM219.956 89.102L222.134 88.742V91.586H225.482V93.404H222.134V97.238C222.134 97.994 222.254 98.534 222.494 98.858C222.734 99.182 223.142 99.344 223.718 99.344C224.114 99.344 224.462 99.302 224.762 99.218C225.074 99.134 225.32 99.056 225.5 98.984L225.86 100.712C225.608 100.82 225.278 100.928 224.87 101.036C224.462 101.156 223.982 101.216 223.43 101.216C222.758 101.216 222.194 101.126 221.738 100.946C221.294 100.766 220.94 100.508 220.676 100.172C220.412 99.824 220.226 99.41 220.118 98.93C220.01 98.438 219.956 97.88 219.956 97.256V89.102ZM234.146 99.434C234.722 99.434 235.142 99.368 235.406 99.236C235.67 99.092 235.802 98.852 235.802 98.516C235.802 98.204 235.658 97.946 235.37 97.742C235.094 97.538 234.632 97.316 233.984 97.076C233.588 96.932 233.222 96.782 232.886 96.626C232.562 96.458 232.28 96.266 232.04 96.05C231.8 95.834 231.608 95.576 231.464 95.276C231.332 94.964 231.266 94.586 231.266 94.142C231.266 93.278 231.584 92.6 232.22 92.108C232.856 91.604 233.72 91.352 234.812 91.352C235.364 91.352 235.892 91.406 236.396 91.514C236.9 91.61 237.278 91.706 237.53 91.802L237.134 93.566C236.894 93.458 236.588 93.362 236.216 93.278C235.844 93.182 235.412 93.134 234.92 93.134C234.476 93.134 234.116 93.212 233.84 93.368C233.564 93.512 233.426 93.74 233.426 94.052C233.426 94.208 233.45 94.346 233.498 94.466C233.558 94.586 233.654 94.7 233.786 94.808C233.918 94.904 234.092 95.006 234.308 95.114C234.524 95.21 234.788 95.312 235.1 95.42C235.616 95.612 236.054 95.804 236.414 95.996C236.774 96.176 237.068 96.386 237.296 96.626C237.536 96.854 237.71 97.118 237.818 97.418C237.926 97.718 237.98 98.078 237.98 98.498C237.98 99.398 237.644 100.082 236.972 100.55C236.312 101.006 235.364 101.234 234.128 101.234C233.3 101.234 232.634 101.162 232.13 101.018C231.626 100.886 231.272 100.778 231.068 100.694L231.446 98.876C231.77 99.008 232.154 99.134 232.598 99.254C233.054 99.374 233.57 99.434 234.146 99.434ZM239.493 96.338C239.493 95.51 239.613 94.784 239.853 94.16C240.105 93.536 240.435 93.02 240.843 92.612C241.251 92.192 241.719 91.88 242.247 91.676C242.775 91.46 243.315 91.352 243.867 91.352C245.163 91.352 246.171 91.754 246.891 92.558C247.623 93.362 247.989 94.562 247.989 96.158C247.989 96.278 247.983 96.416 247.971 96.572C247.971 96.716 247.965 96.848 247.953 96.968H241.743C241.803 97.724 242.067 98.312 242.535 98.732C243.015 99.14 243.705 99.344 244.605 99.344C245.133 99.344 245.613 99.296 246.045 99.2C246.489 99.104 246.837 99.002 247.089 98.894L247.377 100.676C247.257 100.736 247.089 100.802 246.873 100.874C246.669 100.934 246.429 100.988 246.153 101.036C245.889 101.096 245.601 101.144 245.289 101.18C244.977 101.216 244.659 101.234 244.335 101.234C243.507 101.234 242.787 101.114 242.175 100.874C241.563 100.622 241.059 100.28 240.663 99.848C240.267 99.404 239.973 98.888 239.781 98.3C239.589 97.7 239.493 97.046 239.493 96.338ZM245.811 95.366C245.811 95.066 245.769 94.784 245.685 94.52C245.601 94.244 245.475 94.01 245.307 93.818C245.151 93.614 244.953 93.458 244.713 93.35C244.485 93.23 244.209 93.17 243.885 93.17C243.549 93.17 243.255 93.236 243.003 93.368C242.751 93.488 242.535 93.65 242.355 93.854C242.187 94.058 242.055 94.292 241.959 94.556C241.863 94.82 241.797 95.09 241.761 95.366H245.811ZM253.574 101.18C252.926 101.168 252.386 101.096 251.954 100.964C251.534 100.832 251.198 100.646 250.946 100.406C250.694 100.154 250.514 99.848 250.406 99.488C250.31 99.116 250.262 98.696 250.262 98.228V87.392L252.44 87.032V97.814C252.44 98.078 252.458 98.3 252.494 98.48C252.542 98.66 252.62 98.816 252.728 98.948C252.836 99.068 252.98 99.164 253.16 99.236C253.352 99.296 253.592 99.344 253.88 99.38L253.574 101.18ZM258.918 101.18C258.27 101.168 257.73 101.096 257.298 100.964C256.878 100.832 256.542 100.646 256.29 100.406C256.038 100.154 255.858 99.848 255.75 99.488C255.654 99.116 255.606 98.696 255.606 98.228V87.392L257.784 87.032V97.814C257.784 98.078 257.802 98.3 257.838 98.48C257.886 98.66 257.964 98.816 258.072 98.948C258.18 99.068 258.324 99.164 258.504 99.236C258.696 99.296 258.936 99.344 259.224 99.38L258.918 101.18ZM263.182 101H261.004V91.586H263.182V101ZM263.416 88.832C263.416 89.24 263.284 89.564 263.02 89.804C262.756 90.044 262.444 90.164 262.084 90.164C261.712 90.164 261.394 90.044 261.13 89.804C260.866 89.564 260.734 89.24 260.734 88.832C260.734 88.412 260.866 88.082 261.13 87.842C261.394 87.602 261.712 87.482 262.084 87.482C262.444 87.482 262.756 87.602 263.02 87.842C263.284 88.082 263.416 88.412 263.416 88.832ZM265.96 91.892C266.38 91.772 266.926 91.658 267.598 91.55C268.27 91.442 269.014 91.388 269.83 91.388C270.598 91.388 271.24 91.496 271.756 91.712C272.272 91.916 272.68 92.21 272.98 92.594C273.292 92.966 273.508 93.422 273.628 93.962C273.76 94.49 273.826 95.072 273.826 95.708V101H271.648V96.05C271.648 95.546 271.612 95.12 271.54 94.772C271.48 94.412 271.372 94.124 271.216 93.908C271.072 93.68 270.868 93.518 270.604 93.422C270.352 93.314 270.04 93.26 269.668 93.26C269.392 93.26 269.104 93.278 268.804 93.314C268.504 93.35 268.282 93.38 268.138 93.404V101H265.96V91.892ZM278.2 96.05C278.2 96.974 278.398 97.652 278.794 98.084C279.202 98.504 279.724 98.714 280.36 98.714C280.708 98.714 281.032 98.666 281.332 98.57C281.644 98.474 281.896 98.36 282.088 98.228V93.35C281.932 93.314 281.74 93.284 281.512 93.26C281.284 93.224 280.996 93.206 280.648 93.206C279.856 93.206 279.25 93.47 278.83 93.998C278.41 94.514 278.2 95.198 278.2 96.05ZM284.266 100.046C284.266 101.546 283.882 102.644 283.114 103.34C282.358 104.036 281.194 104.384 279.622 104.384C279.046 104.384 278.482 104.336 277.93 104.24C277.39 104.144 276.898 104.018 276.454 103.862L276.85 102.008C277.222 102.164 277.642 102.29 278.11 102.386C278.59 102.482 279.106 102.53 279.658 102.53C280.534 102.53 281.158 102.35 281.53 101.99C281.902 101.63 282.088 101.096 282.088 100.388V100.028C281.872 100.136 281.584 100.244 281.224 100.352C280.876 100.46 280.474 100.514 280.018 100.514C279.418 100.514 278.866 100.418 278.362 100.226C277.87 100.034 277.444 99.752 277.084 99.38C276.736 99.008 276.46 98.546 276.256 97.994C276.064 97.43 275.968 96.782 275.968 96.05C275.968 95.366 276.07 94.736 276.274 94.16C276.49 93.584 276.796 93.092 277.192 92.684C277.6 92.276 278.092 91.958 278.668 91.73C279.244 91.502 279.898 91.388 280.63 91.388C281.338 91.388 282.01 91.442 282.646 91.55C283.282 91.658 283.822 91.772 284.266 91.892V100.046ZM293.434 101H291.256V91.586H293.434V101ZM293.668 88.832C293.668 89.24 293.536 89.564 293.272 89.804C293.008 90.044 292.696 90.164 292.336 90.164C291.964 90.164 291.646 90.044 291.382 89.804C291.118 89.564 290.986 89.24 290.986 88.832C290.986 88.412 291.118 88.082 291.382 87.842C291.646 87.602 291.964 87.482 292.336 87.482C292.696 87.482 293.008 87.602 293.272 87.842C293.536 88.082 293.668 88.412 293.668 88.832ZM296.104 89.102L298.282 88.742V91.586H301.63V93.404H298.282V97.238C298.282 97.994 298.402 98.534 298.642 98.858C298.882 99.182 299.29 99.344 299.866 99.344C300.262 99.344 300.61 99.302 300.91 99.218C301.222 99.134 301.468 99.056 301.648 98.984L302.008 100.712C301.756 100.82 301.426 100.928 301.018 101.036C300.61 101.156 300.13 101.216 299.578 101.216C298.906 101.216 298.342 101.126 297.886 100.946C297.442 100.766 297.088 100.508 296.824 100.172C296.56 99.824 296.374 99.41 296.266 98.93C296.158 98.438 296.104 97.88 296.104 97.256V89.102Z" fill="#171717"/>
<g clip-path="url(#clip1_2559_406)">
<mask id="mask0_2559_406" style="mask-type:alpha" maskUnits="userSpaceOnUse" x="0" y="0" width="468" height="130">
<rect width="468" height="130" fill="url(#paint0_linear_2559_406)"/>
</mask>
<g mask="url(#mask0_2559_406)">
<circle cx="183.5" cy="4.5" r="1.5" fill="#FFE7D8"/>
<circle cx="157.5" cy="52.5" r="1.5" fill="#FFE7D8"/>
<circle cx="183.5" cy="28.5" r="1.5" fill="#FFE7D8"/>
<circle cx="157.5" cy="28.5" r="1.5" fill="#FFE7D8"/>
<circle cx="183.5" cy="100.5" r="1.5" fill="#FFE7D8"/>
<circle cx="183.5" cy="64.5" r="1.5" fill="#FFE7D8"/>
<circle cx="183.5" cy="40.5" r="1.5" fill="#FFE7D8"/>
<circle cx="157.5" cy="40.5" r="1.5" fill="#FFE7D8"/>
<circle cx="183.5" cy="88.5" r="1.5" fill="#FFE7D8"/>
<circle cx="157.5" cy="88.5" r="1.5" fill="#FFE7D8"/>
<circle cx="157.5" cy="112.5" r="1.5" fill="#FFE7D8"/>
<circle cx="351.5" cy="52.5" r="1.5" fill="#FFE7D8"/>
<circle cx="351.5" cy="28.5" r="1.5" fill="#FFE7D8"/>
<circle cx="351.5" cy="76.5" r="1.5" fill="#FFF4ED"/>
<circle cx="351.5" cy="100.5" r="1.5" fill="#FFF4ED"/>
<circle cx="351.5" cy="40.5" r="1.5" fill="#FFE7D8"/>
<circle cx="351.5" cy="112.5" r="1.5" fill="#FFE7D8"/>
<circle cx="267.5" cy="4.5" r="1.5" fill="#FFE7D8"/>
<circle cx="267.5" cy="28.5" r="1.5" fill="#FFE7D8"/>
<circle cx="267.5" cy="76.5" r="1.5" fill="#FFE7D8"/>
<circle cx="267.5" cy="16.5" r="1.5" fill="#FFE7D8"/>
<circle cx="267.5" cy="64.5" r="1.5" fill="#FFE7D8"/>
<circle cx="267.5" cy="40.5" r="1.5" fill="#FFE7D8"/>
<circle cx="267.5" cy="112.5" r="1.5" fill="#FFE7D8"/>
<circle cx="435.5" cy="4.5" r="1.5" fill="#FFE7D8"/>
<circle cx="435.5" cy="52.5" r="1.5" fill="#FFE7D8"/>
<circle cx="435.5" cy="28.5" r="1.5" fill="#FFE7D8"/>
<circle cx="435.5" cy="64.5" r="1.5" fill="#FFE7D8"/>
<circle cx="435.5" cy="40.5" r="1.5" fill="#FFF4ED"/>
<circle cx="435.5" cy="88.5" r="1.5" fill="#FFE7D8"/>
<circle cx="435.5" cy="112.5" r="1.5" fill="#FFE7D8"/>
<circle cx="225.5" cy="76.5" r="1.5" fill="#FFE7D8"/>
<circle cx="225.5" cy="100.5" r="1.5" fill="#FFE7D8"/>
<circle cx="225.5" cy="16.5" r="1.5" fill="#FFE7D8"/>
<circle cx="225.5" cy="64.5" r="1.5" fill="#FFE7D8"/>
<circle cx="225.5" cy="40.5" r="1.5" fill="#FFE7D8"/>
<circle cx="225.5" cy="88.5" r="1.5" fill="#FFE7D8"/>
<circle cx="225.5" cy="112.5" r="1.5" fill="#FFE7D8"/>
<circle cx="393.5" cy="4.5" r="1.5" fill="#FFE7D8"/>
<circle cx="393.5" cy="52.5" r="1.5" fill="#FFE7D8"/>
<circle cx="393.5" cy="28.5" r="1.5" fill="#FFF4ED"/>
<circle cx="393.5" cy="76.5" r="1.5" fill="#FFE7D8"/>
<circle cx="393.5" cy="100.5" r="1.5" fill="#FFE7D8"/>
<circle cx="393.5" cy="16.5" r="1.5" fill="#FFE7D8"/>
<circle cx="393.5" cy="112.5" r="1.5" fill="#FFE7D8"/>
<circle cx="309.5" cy="4.5" r="1.5" fill="#FFE7D8"/>
<circle cx="309.5" cy="28.5" r="1.5" fill="#FFE7D8"/>
<circle cx="309.5" cy="76.5" r="1.5" fill="#FFE7D8"/>
<circle cx="309.5" cy="64.5" r="1.5" fill="#FFE7D8"/>
<circle cx="309.5" cy="40.5" r="1.5" fill="#FFE7D8"/>
<circle cx="309.5" cy="88.5" r="1.5" fill="#FFE7D8"/>
<circle cx="171.5" cy="4.5" r="1.5" fill="#FFE7D8"/>
<circle cx="197.5" cy="76.5" r="1.5" fill="#FFE7D8"/>
<circle cx="171.5" cy="76.5" r="1.5" fill="#FFE7D8"/>
<circle cx="197.5" cy="100.5" r="1.5" fill="#FFE7D8"/>
<circle cx="171.5" cy="100.5" r="1.5" fill="#FFE7D8"/>
<circle cx="197.5" cy="16.5" r="1.5" fill="#FFE7D8"/>
<circle cx="171.5" cy="16.5" r="1.5" fill="#FFE7D8"/>
<circle cx="171.5" cy="64.5" r="1.5" fill="#FFE7D8"/>
<circle cx="197.5" cy="40.5" r="1.5" fill="#FFE7D8"/>
<circle cx="171.5" cy="40.5" r="1.5" fill="#FFE7D8"/>
<circle cx="197.5" cy="112.5" r="1.5" fill="#FFE7D8"/>
<circle cx="365.5" cy="4.5" r="1.5" fill="#FFE7D8"/>
<circle cx="365.5" cy="28.5" r="1.5" fill="#FFE7D8"/>
<circle cx="365.5" cy="76.5" r="1.5" fill="#FFE7D8"/>
<circle cx="365.5" cy="16.5" r="1.5" fill="#FFF4ED"/>
<circle cx="365.5" cy="40.5" r="1.5" fill="#FFF4ED"/>
<circle cx="365.5" cy="88.5" r="1.5" fill="#FFE7D8"/>
<circle cx="365.5" cy="112.5" r="1.5" fill="#FFE7D8"/>
<circle cx="281.5" cy="28.5" r="1.5" fill="#FFE7D8"/>
<circle cx="281.5" cy="76.5" r="1.5" fill="#FFE7D8"/>
<circle cx="281.5" cy="100.5" r="1.5" fill="#FFE7D8"/>
<circle cx="281.5" cy="64.5" r="1.5" fill="#FFE7D8"/>
<circle cx="281.5" cy="88.5" r="1.5" fill="#FFE7D8"/>
<circle cx="281.5" cy="112.5" r="1.5" fill="#FFE7D8"/>
<circle cx="449.5" cy="4.5" r="1.5" fill="#FFE7D8"/>
<circle cx="449.5" cy="52.5" r="1.5" fill="#FFE7D8"/>
<circle cx="449.5" cy="28.5" r="1.5" fill="#FFF4ED"/>
<circle cx="449.5" cy="100.5" r="1.5" fill="#FFE7D8"/>
<circle cx="449.5" cy="16.5" r="1.5" fill="#FFE7D8"/>
<circle cx="449.5" cy="64.5" r="1.5" fill="#FFF4ED"/>
<circle cx="449.5" cy="88.5" r="1.5" fill="#FFE7D8"/>
<circle cx="239.5" cy="4.5" r="1.5" fill="#FFE7D8"/>
<circle cx="239.5" cy="52.5" r="1.5" fill="#FFE7D8"/>
<circle cx="239.5" cy="28.5" r="1.5" fill="#FFE7D8"/>
<circle cx="239.5" cy="76.5" r="1.5" fill="#FFE7D8"/>
<circle cx="239.5" cy="16.5" r="1.5" fill="#FFE7D8"/>
<circle cx="239.5" cy="64.5" r="1.5" fill="#FFE7D8"/>
<circle cx="239.5" cy="40.5" r="1.5" fill="#FFE7D8"/>
<circle cx="407.5" cy="52.5" r="1.5" fill="#FFE7D8"/>
<circle cx="407.5" cy="28.5" r="1.5" fill="#FFE7D8"/>
<circle cx="407.5" cy="16.5" r="1.5" fill="#FFE7D8"/>
<circle cx="407.5" cy="64.5" r="1.5" fill="#FFF4ED"/>
<circle cx="407.5" cy="40.5" r="1.5" fill="#FFE7D8"/>
<circle cx="407.5" cy="88.5" r="1.5" fill="#FFE7D8"/>
<circle cx="323.5" cy="4.5" r="1.5" fill="#FFE7D8"/>
<circle cx="323.5" cy="52.5" r="1.5" fill="#FFE7D8"/>
<circle cx="323.5" cy="28.5" r="1.5" fill="#FFE7D8"/>
<circle cx="323.5" cy="100.5" r="1.5" fill="#FFE7D8"/>
<circle cx="323.5" cy="64.5" r="1.5" fill="#FFE7D8"/>
<circle cx="323.5" cy="88.5" r="1.5" fill="#FFE7D8"/>
<circle cx="323.5" cy="112.5" r="1.5" fill="#FFE7D8"/>
<circle cx="211.5" cy="4.5" r="1.5" fill="#FFE7D8"/>
<circle cx="211.5" cy="52.5" r="1.5" fill="#FFE7D8"/>
<circle cx="211.5" cy="16.5" r="1.5" fill="#FFE7D8"/>
<circle cx="211.5" cy="64.5" r="1.5" fill="#FFE7D8"/>
<circle cx="211.5" cy="40.5" r="1.5" fill="#FFE7D8"/>
<circle cx="211.5" cy="88.5" r="1.5" fill="#FFE7D8"/>
<circle cx="211.5" cy="112.5" r="1.5" fill="#FFE7D8"/>
<circle cx="379.5" cy="52.5" r="1.5" fill="#FFE7D8"/>
<circle cx="379.5" cy="100.5" r="1.5" fill="#FFE7D8"/>
<circle cx="379.5" cy="16.5" r="1.5" fill="#FFE7D8"/>
<circle cx="379.5" cy="64.5" r="1.5" fill="#FFE7D8"/>
<circle cx="379.5" cy="40.5" r="1.5" fill="#FFE7D8"/>
<circle cx="379.5" cy="88.5" r="1.5" fill="#FFF4ED"/>
<circle cx="295.5" cy="4.5" r="1.5" fill="#FFE7D8"/>
<circle cx="295.5" cy="52.5" r="1.5" fill="#FFE7D8"/>
<circle cx="295.5" cy="28.5" r="1.5" fill="#FFE7D8"/>
<circle cx="295.5" cy="16.5" r="1.5" fill="#FFE7D8"/>
<circle cx="295.5" cy="64.5" r="1.5" fill="#FFE7D8"/>
<circle cx="295.5" cy="40.5" r="1.5" fill="#FFE7D8"/>
<circle cx="295.5" cy="112.5" r="1.5" fill="#FFE7D8"/>
<circle cx="463.5" cy="4.5" r="1.5" fill="#FFE7D8"/>
<circle cx="463.5" cy="52.5" r="1.5" fill="#FFE7D8"/>
<circle cx="463.5" cy="76.5" r="1.5" fill="#FFE7D8"/>
<circle cx="463.5" cy="100.5" r="1.5" fill="#FFE7D8"/>
<circle cx="463.5" cy="16.5" r="1.5" fill="#FFE7D8"/>
<circle cx="463.5" cy="88.5" r="1.5" fill="#FFF4ED"/>
<circle cx="463.5" cy="112.5" r="1.5" fill="#FFE7D8"/>
<circle cx="253.5" cy="4.5" r="1.5" fill="#FFE7D8"/>
<circle cx="253.5" cy="52.5" r="1.5" fill="#FFE7D8"/>
<circle cx="253.5" cy="76.5" r="1.5" fill="#FFE7D8"/>
<circle cx="253.5" cy="100.5" r="1.5" fill="#FFE7D8"/>
<circle cx="253.5" cy="40.5" r="1.5" fill="#FFE7D8"/>
<circle cx="253.5" cy="88.5" r="1.5" fill="#FFE7D8"/>
<circle cx="253.5" cy="112.5" r="1.5" fill="#FFE7D8"/>
<circle cx="421.5" cy="4.5" r="1.5" fill="#FFE7D8"/>
<circle cx="421.5" cy="76.5" r="1.5" fill="#FFF4ED"/>
<circle cx="421.5" cy="100.5" r="1.5" fill="#FFE7D8"/>
<circle cx="421.5" cy="64.5" r="1.5" fill="#FFE7D8"/>
<circle cx="421.5" cy="88.5" r="1.5" fill="#FFE7D8"/>
<circle cx="421.5" cy="112.5" r="1.5" fill="#FFF4ED"/>
<circle cx="337.5" cy="4.5" r="1.5" fill="#FFE7D8"/>
<circle cx="337.5" cy="52.5" r="1.5" fill="#FFF4ED"/>
<circle cx="337.5" cy="76.5" r="1.5" fill="#FFE7D8"/>
<circle cx="337.5" cy="16.5" r="1.5" fill="#FFE7D8"/>
<circle cx="337.5" cy="64.5" r="1.5" fill="#FFE7D8"/>
<circle cx="337.5" cy="40.5" r="1.5" fill="#FFF4ED"/>
<circle cx="337.5" cy="88.5" r="1.5" fill="#FFE7D8"/>
</g>
</g>
</g>
<rect x="0.25" y="0.25" width="467.5" height="129.5" rx="15.75" stroke="#EEEEF4" stroke-width="0.5"/>
<defs>
<linearGradient id="paint0_linear_2559_406" x1="277.69" y1="-6.50001" x2="233.471" y2="151.824" gradientUnits="userSpaceOnUse">
<stop stop-color="#D9D9D9"/>
<stop offset="0.443879" stop-color="#D9D9D9" stop-opacity="0"/>
</linearGradient>
<clipPath id="clip0_2559_406">
<rect width="468" height="130" rx="16" fill="white"/>
</clipPath>
<clipPath id="clip1_2559_406">
<rect width="468" height="130" fill="white"/>
</clipPath>
</defs>
</svg>
